# This file uses centimeters as units for non-parametric coordinates.

mtllib Barique_Art_01.mtl
g default
v 3.070786 -0.201415 -3.070786
v 0.000000 -0.201415 -4.342749
v -3.070786 -0.201415 -3.070786
v -4.342749 -0.201415 0.000000
v -3.070786 -0.201415 3.070786
v 0.000000 -0.201415 4.342749
v 3.070787 -0.201415 3.070787
v 4.342749 -0.201415 0.000000
v 3.070786 0.201415 -3.070786
v 0.000000 0.201415 -4.342749
v -3.070786 0.201415 -3.070786
v -4.342749 0.201415 0.000000
v -3.070786 0.201415 3.070786
v 0.000000 0.201415 4.342749
v 3.070787 0.201415 3.070787
v 4.342749 0.201415 0.000000
v 3.801362 -0.201415 -3.801363
v -0.000000 -0.201415 -5.375939
v -0.000000 0.201415 -5.375939
v 3.801362 0.201415 -3.801363
v -3.801363 -0.201415 -3.801363
v -3.801363 0.201415 -3.801363
v -5.375939 -0.201415 0.000000
v -5.375939 0.201415 0.000000
v -3.801363 -0.201415 3.801363
v -3.801363 0.201415 3.801363
v -0.000000 -0.201415 5.375939
v -0.000000 0.201415 5.375939
v 3.801363 -0.201415 3.801363
v 3.801363 0.201415 3.801363
v 5.375939 -0.201415 0.000000
v 5.375939 0.201415 0.000000
v 3.070786 -0.024204 -3.070786
v 0.000000 -0.024204 -4.342749
v 0.000000 -0.024204 0.000000
v -3.070786 -0.024204 -3.070786
v -4.342749 -0.024204 0.000000
v -3.070786 -0.024204 3.070786
v 0.000000 -0.024204 4.342749
v 3.070787 -0.024204 3.070787
v 4.342749 -0.024204 0.000000
v 3.070786 0.024204 -3.070786
v 0.000000 0.024204 -4.342749
v 0.000000 0.420823 0.000000
v -3.070786 0.024204 -3.070786
v -4.342749 0.024204 0.000000
v -3.070786 0.024204 3.070786
v 0.000000 0.024204 4.342749
v 3.070787 0.024204 3.070787
v 4.342749 0.024204 0.000000
v 0.000000 0.024204 -0.251126
v 0.177573 0.024204 -0.177573
v -0.177572 0.024204 -0.177573
v -0.251126 0.024204 0.000000
v -0.177572 0.024204 0.177573
v 0.000000 0.024204 0.251126
v 0.177573 0.024204 0.177573
v 0.251126 0.024204 0.000000
vt 0.610485 0.045765
vt 0.500000 0.000000
vt 0.389515 0.045765
vt 0.343750 0.156250
vt 0.389515 0.266735
vt 0.500000 0.312500
vt 0.610485 0.266735
vt 0.656250 0.156250
vt 0.375000 0.312500
vt 0.406250 0.312500
vt 0.437500 0.312500
vt 0.468750 0.312500
vt 0.500000 0.312500
vt 0.531250 0.312500
vt 0.562500 0.312500
vt 0.593750 0.312500
vt 0.625000 0.312500
vt 0.375000 0.688440
vt 0.406250 0.688440
vt 0.437500 0.688440
vt 0.468750 0.688440
vt 0.500000 0.688440
vt 0.531250 0.688440
vt 0.562500 0.688440
vt 0.593750 0.688440
vt 0.625000 0.688440
vt 0.610485 0.733265
vt 0.500000 0.687500
vt 0.389515 0.733265
vt 0.343750 0.843750
vt 0.389515 0.954235
vt 0.500000 1.000000
vt 0.610485 0.954235
vt 0.656250 0.843750
vt 0.500000 0.150000
vt 0.500000 0.837500
vt 0.375000 0.312500
vt 0.406250 0.312500
vt 0.406250 0.688440
vt 0.375000 0.688440
vt 0.437500 0.312500
vt 0.437500 0.688440
vt 0.468750 0.312500
vt 0.468750 0.688440
vt 0.500000 0.312500
vt 0.500000 0.688440
vt 0.531250 0.312500
vt 0.531250 0.688440
vt 0.562500 0.312500
vt 0.562500 0.688440
vt 0.593750 0.312500
vt 0.593750 0.688440
vt 0.625000 0.312500
vt 0.625000 0.688440
vt 0.500000 0.000000
vt 0.610485 0.045765
vt 0.389515 0.045765
vt 0.343750 0.156250
vt 0.389515 0.266735
vt 0.500000 0.312500
vt 0.610485 0.266735
vt 0.656250 0.156250
vt 0.610485 0.954235
vt 0.500000 1.000000
vt 0.389515 0.954235
vt 0.343750 0.843750
vt 0.389515 0.733265
vt 0.500000 0.687500
vt 0.610485 0.733265
vt 0.656250 0.843750
vt 0.500000 0.918750
vt 0.555243 0.895868
vt 0.444757 0.895868
vt 0.421875 0.840625
vt 0.444757 0.785382
vt 0.500000 0.762500
vt 0.555243 0.785382
vt 0.578125 0.840625
vn 0.352527 -0.866862 -0.352527
vn 0.000000 -0.866862 -0.498548
vn 0.000000 0.866862 -0.498548
vn 0.352527 0.866862 -0.352527
vn -0.352527 -0.866862 -0.352527
vn -0.352527 0.866862 -0.352527
vn -0.498548 -0.866862 0.000000
vn -0.498548 0.866862 -0.000000
vn -0.352527 -0.866862 0.352527
vn -0.352527 0.866862 0.352527
vn 0.000000 -0.866862 0.498548
vn 0.000000 0.866862 0.498548
vn 0.352527 -0.866862 0.352527
vn 0.352527 0.866862 0.352527
vn 0.498548 -0.866862 -0.000000
vn 0.498548 0.866862 -0.000000
vn 0.000000 -0.994132 0.108178
vn -0.076493 -0.994132 0.076493
vn 0.000000 -1.000000 0.000000
vn 0.076493 -0.994132 0.076493
vn 0.000000 -1.000000 0.000000
vn 0.108178 -0.994132 0.000000
vn 0.000000 -1.000000 -0.000000
vn 0.076493 -0.994132 -0.076493
vn 0.000000 -1.000000 0.000000
vn 0.000000 -0.994132 -0.108178
vn 0.000000 -1.000000 0.000000
vn -0.076493 -0.994132 -0.076493
vn 0.000000 -1.000000 0.000000
vn -0.108178 -0.994132 0.000000
vn 0.000000 -1.000000 0.000000
vn 0.000000 -1.000000 0.000000
vn 0.330319 0.504924 -0.797459
vn 0.330319 0.504924 -0.797459
vn 0.330319 0.504924 -0.797459
vn -0.330319 0.504924 -0.797459
vn -0.330319 0.504924 -0.797459
vn -0.330319 0.504924 -0.797459
vn -0.797458 0.504924 -0.330321
vn -0.797458 0.504924 -0.330321
vn -0.797458 0.504924 -0.330321
vn -0.797458 0.504924 0.330321
vn -0.797458 0.504924 0.330321
vn -0.797458 0.504924 0.330321
vn -0.330319 0.504924 0.797459
vn -0.330319 0.504924 0.797459
vn -0.330319 0.504924 0.797459
vn 0.330319 0.504924 0.797459
vn 0.330319 0.504924 0.797459
vn 0.330319 0.504924 0.797459
vn 0.797458 0.504925 0.330321
vn 0.797458 0.504925 0.330321
vn 0.797458 0.504925 0.330321
vn 0.797458 0.504925 -0.330321
vn 0.797458 0.504925 -0.330321
vn 0.797458 0.504925 -0.330321
vn -0.086066 -0.992565 0.086066
vn 0.000000 -0.992565 0.121716
vn 0.000000 0.992565 0.121716
vn -0.086066 0.992565 0.086066
vn 0.086066 -0.992565 0.086066
vn 0.086066 0.992565 0.086066
vn 0.121716 -0.992565 0.000000
vn 0.121716 0.992565 0.000000
vn 0.086066 -0.992565 -0.086066
vn 0.086066 0.992565 -0.086066
vn 0.000000 -0.992565 -0.121716
vn 0.000000 0.992565 -0.121716
vn -0.086066 -0.992565 -0.086066
vn -0.086066 0.992565 -0.086066
vn -0.121716 -0.992565 0.000000
vn -0.121716 0.992565 0.000000
vn 0.000000 0.000000 1.000000
vn -0.707107 0.000000 0.707107
vn 0.707107 0.000000 0.707107
vn 1.000000 0.000000 0.000000
vn 0.707107 0.000000 -0.707107
vn 0.000000 0.000000 -1.000000
vn -0.707107 0.000000 -0.707107
vn -1.000000 0.000000 0.000000
vn 0.000000 1.000000 0.000000
vn 0.000000 1.000000 0.000000
vn 0.000000 1.000000 0.000000
vn 0.000000 1.000000 0.000000
vn 0.000000 1.000000 0.000000
vn 0.000000 1.000000 0.000000
vn 0.000000 1.000000 0.000000
vn 0.000000 1.000000 0.000000
vn 0.000000 1.000000 -0.000000
vn 0.000000 1.000000 -0.000000
vn 0.000000 1.000000 -0.000000
vn 0.000000 1.000000 -0.000000
vn 0.000000 1.000000 0.000000
vn 0.000000 1.000000 0.000000
vn 0.000000 1.000000 0.000000
vn 0.000000 1.000000 0.000000
vn 0.000000 1.000000 -0.000000
vn 0.000000 1.000000 -0.000000
vn 0.000000 1.000000 -0.000000
vn 0.000000 1.000000 -0.000000
vn 0.000000 1.000000 0.000000
vn 0.000000 1.000000 0.000000
vn 0.000000 1.000000 0.000000
vn 0.000000 1.000000 0.000000
vn 0.000000 1.000000 -0.000000
vn 0.000000 1.000000 -0.000000
vn 0.000000 1.000000 -0.000000
vn 0.000000 1.000000 -0.000000
vn 0.000000 1.000000 0.000000
vn 0.000000 1.000000 0.000000
vn 0.000000 1.000000 0.000000
vn 0.000000 1.000000 0.000000
s 1
g pCylinder1
usemtl initialShadingGroup
f 17/37/1 18/38/2 19/39/3 20/40/4
f 18/38/2 21/41/5 22/42/6 19/39/3
f 21/41/5 23/43/7 24/44/8 22/42/6
f 23/43/7 25/45/9 26/46/10 24/44/8
f 25/45/9 27/47/11 28/48/12 26/46/10
f 27/47/11 29/49/13 30/50/14 28/48/12
f 29/49/13 31/51/15 32/52/16 30/50/14
f 31/51/15 17/53/1 20/54/4 32/52/16
f 34/55/17 33/56/18 35/35/19
f 36/57/20 34/55/17 35/35/21
f 37/58/22 36/57/20 35/35/23
f 38/59/24 37/58/22 35/35/25
f 39/60/26 38/59/24 35/35/27
f 40/61/28 39/60/26 35/35/29
f 41/62/30 40/61/28 35/35/31
f 33/56/18 41/62/30 35/35/32
s off
f 52/72/33 51/71/34 44/36/35
f 51/71/36 53/73/37 44/36/38
f 53/73/39 54/74/40 44/36/41
f 54/74/42 55/75/43 44/36/44
f 55/75/45 56/76/46 44/36/47
f 56/76/48 57/77/49 44/36/50
f 57/77/51 58/78/52 44/36/53
f 58/78/54 52/72/55 44/36/56
s 1
f 1/9/57 2/10/58 18/38/2 17/37/1
f 10/19/59 9/18/60 20/40/4 19/39/3
f 2/10/58 3/11/61 21/41/5 18/38/2
f 11/20/62 10/19/59 19/39/3 22/42/6
f 3/11/61 4/12/63 23/43/7 21/41/5
f 12/21/64 11/20/62 22/42/6 24/44/8
f 4/12/63 5/13/65 25/45/9 23/43/7
f 13/22/66 12/21/64 24/44/8 26/46/10
f 5/13/65 6/14/67 27/47/11 25/45/9
f 14/23/68 13/22/66 26/46/10 28/48/12
f 6/14/67 7/15/69 29/49/13 27/47/11
f 15/24/70 14/23/68 28/48/12 30/50/14
f 7/15/69 8/16/71 31/51/15 29/49/13
f 16/25/72 15/24/70 30/50/14 32/52/16
f 8/16/71 1/17/57 17/53/1 31/51/15
f 9/26/60 16/25/72 32/52/16 20/54/4
f 2/2/58 1/1/57 33/56/18 34/55/17
f 3/3/61 2/2/58 34/55/17 36/57/20
f 4/4/63 3/3/61 36/57/20 37/58/22
f 5/5/65 4/4/63 37/58/22 38/59/24
f 6/6/67 5/5/65 38/59/24 39/60/26
f 7/7/69 6/6/67 39/60/26 40/61/28
f 8/8/71 7/7/69 40/61/28 41/62/30
f 1/1/57 8/8/71 41/62/30 33/56/18
f 9/33/60 10/32/59 43/64/73 42/63/74
f 10/32/59 11/31/62 45/65/75 43/64/73
f 11/31/62 12/30/64 46/66/76 45/65/75
f 12/30/64 13/29/66 47/67/77 46/66/76
f 13/29/66 14/28/68 48/68/78 47/67/77
f 14/28/68 15/27/70 49/69/79 48/68/78
f 15/27/70 16/34/72 50/70/80 49/69/79
f 16/34/72 9/33/60 42/63/74 50/70/80
s off
f 50/70/81 42/63/82 52/72/83 58/78/84
f 42/63/85 43/64/86 51/71/87 52/72/88
f 43/64/89 45/65/90 53/73/91 51/71/92
f 45/65/93 46/66/94 54/74/95 53/73/96
f 46/66/97 47/67/98 55/75/99 54/74/100
f 47/67/101 48/68/102 56/76/103 55/75/104
f 48/68/105 49/69/106 57/77/107 56/76/108
f 49/69/109 50/70/110 58/78/111 57/77/112
