# This file uses centimeters as units for non-parametric coordinates.

mtllib Barogue_Light.mtl
g default
v 0.131509 0.359055 -0.131509
v 0.000000 0.359055 -0.185981
v -0.131509 0.359055 -0.131509
v -0.185981 0.359055 0.000000
v -0.131509 0.359055 0.131509
v 0.000000 0.359055 0.185981
v 0.131509 0.359055 0.131509
v 0.185981 0.359055 0.000000
v 0.259915 -0.156045 -0.382424
v 0.346542 -0.062281 -0.346542
v 0.382424 -0.156045 -0.259915
v 0.226367 -0.156045 -0.093764
v 0.226367 -0.156045 0.093764
v 0.093764 -0.156045 0.226367
v -0.093764 -0.156045 0.226367
v -0.226367 -0.156045 0.093764
v -0.226367 -0.156045 -0.093764
v -0.093764 -0.156045 -0.226367
v 0.093764 -0.156045 -0.226367
v 0.000000 -0.124790 -0.466163
v -0.382424 -0.156045 -0.259915
v -0.346542 -0.062281 -0.346542
v -0.259915 -0.156045 -0.382424
v -0.466163 -0.124790 0.000000
v -0.259915 -0.156045 0.382424
v -0.346542 -0.062281 0.346542
v -0.382424 -0.156045 0.259915
v 0.000000 -0.124790 0.466163
v 0.382424 -0.156045 0.259915
v 0.346542 -0.062281 0.346542
v 0.259915 -0.156045 0.382424
v 0.466163 -0.124790 0.000000
v 0.331636 -0.413493 -0.487950
v 0.487950 -0.413493 -0.331636
v 0.506490 -0.413493 -0.209795
v 0.209795 -0.413493 -0.506490
v 0.209795 -0.413493 0.506490
v 0.506490 -0.413493 0.209795
v 0.487950 -0.413493 0.331636
v 0.331636 -0.413493 0.487950
v -0.506490 -0.413493 0.209795
v -0.209795 -0.413493 0.506490
v -0.331636 -0.413493 0.487950
v -0.487950 -0.413493 0.331636
v -0.209795 -0.413493 -0.506490
v -0.506490 -0.413493 -0.209795
v -0.487950 -0.413493 -0.331636
v -0.331636 -0.413493 -0.487950
v 0.102064 0.417381 -0.102064
v 0.000000 0.417381 -0.144340
v -0.102064 0.417381 -0.102064
v -0.144340 0.417381 0.000000
v -0.102064 0.417381 0.102064
v 0.000000 0.417381 0.144340
v 0.102064 0.417381 0.102064
v 0.144340 0.417381 0.000000
v 0.102064 0.486586 -0.102064
v 0.000000 0.486586 -0.144340
v -0.102064 0.486586 -0.102064
v -0.144340 0.486586 0.000000
v -0.102064 0.486586 0.102064
v 0.000000 0.486586 0.144340
v 0.102064 0.486586 0.102064
v 0.144340 0.486586 0.000000
v 0.123785 0.535305 -0.123785
v 0.000000 0.535305 -0.175058
v -0.123785 0.535305 -0.123785
v -0.175058 0.535305 0.000000
v -0.123785 0.535305 0.123785
v 0.000000 0.535305 0.175058
v 0.123785 0.535305 0.123785
v 0.175058 0.535305 0.000000
v 0.049214 0.787022 -0.049214
v 0.000000 0.787022 -0.069599
v -0.049214 0.787022 -0.049214
v -0.069599 0.787022 0.000000
v -0.049214 0.787022 0.049214
v 0.000000 0.787022 0.069599
v 0.049214 0.787022 0.049214
v 0.069599 0.787022 0.000000
v 0.049214 2.285458 -0.049214
v 0.000000 2.285458 -0.069599
v 0.000000 2.285458 0.000000
v -0.049214 2.285458 -0.049214
v -0.069599 2.285458 0.000000
v -0.049214 2.285458 0.049214
v 0.000000 2.285458 0.069599
v 0.049214 2.285458 0.049214
v 0.069599 2.285458 0.000000
v 0.701476 1.354352 -0.701476
v 0.000000 1.354352 -0.992037
v -0.701476 1.354352 -0.701476
v -0.992037 1.354352 0.000000
v -0.701476 1.354352 0.701476
v 0.000000 1.354352 0.992037
v 0.701476 1.354352 0.701476
v 0.992037 1.354352 0.000000
v 0.054520 2.451164 -0.055138
v 0.000000 2.451070 -0.077787
v -0.054520 2.451164 -0.055138
v -0.076947 2.451391 -0.000618
v -0.054299 2.451617 0.053681
v 0.000000 2.451711 0.076108
v 0.054299 2.451617 0.053681
v 0.076947 2.451391 -0.000618
v 0.000000 2.510795 -0.077787
v 0.054520 2.510890 -0.055138
v -0.054520 2.510890 -0.055138
v -0.076947 2.511117 -0.000618
v -0.054299 2.511343 0.053681
v 0.000000 2.511437 0.076108
v 0.054299 2.511343 0.053681
v 0.076947 2.511117 -0.000618
v -0.000710 2.547490 -0.002134
vt 0.610485 0.733265
vt 0.500000 0.687500
vt 0.389515 0.733265
vt 0.343750 0.843750
vt 0.389515 0.954235
vt 0.500000 1.000000
vt 0.610485 0.954235
vt 0.656250 0.843750
vt 0.500000 0.837500
vt 0.382812 0.312500
vt 0.375000 0.688440
vt 0.406250 0.324390
vt 0.406250 0.688440
vt 0.445312 0.312500
vt 0.437500 0.688440
vt 0.468750 0.324390
vt 0.468750 0.688440
vt 0.507812 0.312500
vt 0.500000 0.688440
vt 0.531250 0.324390
vt 0.531250 0.688440
vt 0.593750 0.324390
vt 0.617188 0.312500
vt 0.625000 0.348169
vt 0.625000 0.688440
vt 0.593750 0.688440
vt 0.570312 0.312500
vt 0.562500 0.688440
vt 0.500000 0.011440
vt 0.644810 0.156250
vt 0.582867 0.278175
vt 0.500000 0.301060
vt 0.378075 0.239117
vt 0.355190 0.156250
vt 0.417133 0.034325
vt 0.621925 0.073383
vt 0.582867 0.034325
vt 0.621925 0.239117
vt 0.417133 0.278175
vt 0.378075 0.073383
vt 0.529894 0.081211
vt 0.375000 0.348169
vt 0.375000 0.312500
vt 0.572171 0.123488
vt 0.572171 0.183276
vt 0.529894 0.225553
vt 0.470106 0.225553
vt 0.427829 0.183276
vt 0.427829 0.123488
vt 0.470106 0.081211
vt 0.437500 0.348169
vt 0.429688 0.312500
vt 0.500000 0.348169
vt 0.492188 0.312500
vt 0.562500 0.348169
vt 0.554688 0.312500
vt 0.582867 0.034325
vt 0.621925 0.073383
vt 0.572171 0.123488
vt 0.529894 0.081211
vt 0.529894 0.225553
vt 0.572171 0.183276
vt 0.621925 0.239117
vt 0.582867 0.278175
vt 0.427829 0.183276
vt 0.470106 0.225553
vt 0.417133 0.278175
vt 0.378075 0.239117
vt 0.470106 0.081211
vt 0.427829 0.123488
vt 0.378075 0.073383
vt 0.417133 0.034325
vt 0.610485 0.954235
vt 0.500000 1.000000
vt 0.389515 0.954235
vt 0.343750 0.843750
vt 0.389515 0.733265
vt 0.500000 0.687500
vt 0.610485 0.733265
vt 0.656250 0.843750
vt 0.610485 0.954235
vt 0.500000 1.000000
vt 0.389515 0.954235
vt 0.343750 0.843750
vt 0.389515 0.733265
vt 0.500000 0.687500
vt 0.610485 0.733265
vt 0.656250 0.843750
vt 0.610485 0.954235
vt 0.500000 1.000000
vt 0.389515 0.954235
vt 0.343750 0.843750
vt 0.389515 0.733265
vt 0.500000 0.687500
vt 0.610485 0.733265
vt 0.656250 0.843750
vt 0.610485 0.954235
vt 0.500000 1.000000
vt 0.389515 0.954235
vt 0.343750 0.843750
vt 0.389515 0.733265
vt 0.500000 0.687500
vt 0.610485 0.733265
vt 0.656250 0.843750
vt 0.610485 0.954235
vt 0.500000 1.000000
vt 0.389515 0.954235
vt 0.343750 0.843750
vt 0.389515 0.733265
vt 0.500000 0.687500
vt 0.610485 0.733265
vt 0.656250 0.843750
vt 0.250000 0.500000
vt 0.312500 0.500000
vt 0.444729 0.852610
vt 0.426368 0.852735
vt 0.375000 0.500000
vt 0.463184 0.852735
vt 0.437500 0.500000
vt 0.481629 0.853035
vt 0.500000 0.500000
vt 0.500000 0.853333
vt 0.562500 0.500000
vt 0.518318 0.853457
vt 0.625000 0.500000
vt 0.536667 0.853333
vt 0.687500 0.500000
vt 0.555112 0.853035
vt 0.750000 0.500000
vt 0.573632 0.852735
vt 0.426368 0.852735
vt 0.444729 0.852610
vt 0.463184 0.852735
vt 0.481629 0.853035
vt 0.500000 0.853333
vt 0.518318 0.853457
vt 0.536667 0.853333
vt 0.555112 0.853035
vt 0.487075 0.852954
vn 0.000000 1.000000 0.000002
vn 0.000000 1.000000 0.000003
vn 0.000000 1.000000 0.000001
vn 0.000000 1.000000 0.000001
vn 0.000000 1.000000 0.000000
vn 0.000000 1.000000 0.000000
vn 0.000000 1.000000 -0.000001
vn 0.000000 1.000000 0.000001
vn 0.000000 1.000000 0.000002
vn 0.244841 0.471330 -0.847290
vn 0.244841 0.471330 -0.847290
vn 0.244841 0.471330 -0.847290
vn 0.244841 0.471330 -0.847290
vn 0.244841 0.471330 -0.847290
vn -0.244841 0.471330 -0.847290
vn -0.244841 0.471330 -0.847290
vn -0.244841 0.471330 -0.847290
vn -0.244841 0.471330 -0.847290
vn -0.244841 0.471330 -0.847290
vn -0.847290 0.471330 -0.244841
vn -0.847290 0.471330 -0.244841
vn -0.847290 0.471330 -0.244841
vn -0.847290 0.471330 -0.244841
vn -0.847290 0.471330 -0.244841
vn -0.847290 0.471330 0.244841
vn -0.847290 0.471330 0.244841
vn -0.847290 0.471330 0.244841
vn -0.847290 0.471330 0.244841
vn -0.847290 0.471330 0.244841
vn -0.244841 0.471330 0.847290
vn -0.244841 0.471330 0.847290
vn -0.244841 0.471330 0.847290
vn -0.244841 0.471330 0.847290
vn -0.244841 0.471330 0.847290
vn 0.244841 0.471330 0.847290
vn 0.244841 0.471330 0.847290
vn 0.244841 0.471330 0.847291
vn 0.244841 0.471330 0.847291
vn 0.244841 0.471330 0.847290
vn 0.847290 0.471330 0.244841
vn 0.847291 0.471330 0.244841
vn 0.847290 0.471330 0.244841
vn 0.847290 0.471330 0.244841
vn 0.847290 0.471330 0.244841
vn 0.847291 0.471330 -0.244841
vn 0.847290 0.471330 -0.244841
vn 0.847290 0.471330 -0.244841
vn 0.847290 0.471330 -0.244841
vn 0.847290 0.471330 -0.244841
vn -0.088781 -0.991556 -0.094524
vn -0.006327 -0.999876 -0.014393
vn -0.000000 -0.994600 -0.103785
vn 0.094523 -0.991556 -0.088781
vn 0.014393 -0.999876 -0.006327
vn 0.103784 -0.994600 0.000000
vn -0.000000 -0.994600 0.103785
vn -0.006327 -0.999876 0.014393
vn -0.088781 -0.991556 0.094523
vn 0.088781 -0.991556 0.094524
vn 0.006327 -0.999876 0.014393
vn -0.103784 -0.994600 0.000000
vn -0.014393 -0.999876 -0.006327
vn -0.094523 -0.991556 -0.088781
vn -0.094523 -0.991556 0.088781
vn -0.014393 -0.999876 0.006327
vn 0.006327 -0.999876 -0.014393
vn 0.088781 -0.991556 -0.094524
vn 0.014393 -0.999876 0.006327
vn 0.094523 -0.991556 0.088781
vn 0.000000 -1.000000 0.000000
vn 0.000000 -1.000000 0.000000
vn 0.000000 -1.000000 0.000000
vn 0.000000 -1.000000 0.000000
vn 0.000000 -1.000000 0.000000
vn 0.000000 -1.000000 0.000000
vn 0.000000 -1.000000 0.000000
vn 0.000000 -1.000000 0.000000
vn 0.000000 -1.000000 -0.000000
vn 0.000000 -1.000000 -0.000000
vn 0.000000 -1.000000 -0.000000
vn 0.000000 -1.000000 -0.000000
vn 0.000000 -1.000000 0.000000
vn 0.000000 -1.000000 0.000000
vn 0.000000 -1.000000 0.000000
vn 0.000000 -1.000000 0.000000
vn 0.660402 -0.357406 -0.660402
vn 0.660402 -0.357406 -0.660402
vn 0.660402 -0.357406 -0.660402
vn -0.660402 -0.357407 -0.660402
vn -0.660402 -0.357407 -0.660402
vn -0.660402 -0.357407 -0.660402
vn -0.660402 -0.357407 0.660402
vn -0.660402 -0.357407 0.660402
vn -0.660402 -0.357407 0.660402
vn 0.660402 -0.357407 0.660402
vn 0.660402 -0.357406 0.660402
vn 0.660402 -0.357407 0.660402
vn 0.635770 0.437713 -0.635770
vn 0.635770 0.437713 -0.635770
vn 0.635770 0.437713 -0.635770
vn 0.635770 0.437713 -0.635770
vn 0.801031 0.460488 0.382494
vn 0.801030 0.460488 0.382494
vn 0.801030 0.460488 0.382494
vn 0.801030 0.460488 0.382494
vn -0.478484 -0.736279 0.478484
vn -0.478484 -0.736279 0.478484
vn -0.478483 -0.736279 0.478484
vn -0.478483 -0.736279 0.478484
vn -0.382493 0.460488 -0.801031
vn -0.382493 0.460488 -0.801031
vn -0.382493 0.460488 -0.801031
vn -0.382493 0.460488 -0.801031
vn -0.478484 -0.736279 -0.478484
vn -0.478484 -0.736279 -0.478484
vn -0.478484 -0.736279 -0.478484
vn -0.478484 -0.736279 -0.478484
vn 0.801031 0.460488 -0.382493
vn 0.801031 0.460488 -0.382493
vn 0.801030 0.460488 -0.382493
vn 0.801030 0.460488 -0.382493
vn 0.635770 0.437713 0.635770
vn 0.635770 0.437713 0.635770
vn 0.635770 0.437713 0.635770
vn 0.635770 0.437713 0.635770
vn -0.382493 0.460488 0.801030
vn -0.382493 0.460488 0.801031
vn -0.382493 0.460488 0.801030
vn -0.382493 0.460488 0.801030
vn 0.478484 -0.736279 -0.478484
vn 0.478484 -0.736279 -0.478484
vn 0.478484 -0.736279 -0.478483
vn 0.478484 -0.736279 -0.478484
vn 0.382493 0.460488 0.801031
vn 0.382493 0.460488 0.801030
vn 0.382493 0.460488 0.801030
vn 0.382493 0.460488 0.801031
vn -0.635770 0.437713 0.635770
vn -0.635770 0.437713 0.635770
vn -0.635770 0.437713 0.635770
vn -0.635770 0.437713 0.635770
vn -0.801031 0.460488 -0.382493
vn -0.801031 0.460488 -0.382493
vn -0.801031 0.460488 -0.382493
vn -0.801031 0.460488 -0.382493
vn 0.478484 -0.736279 0.478483
vn 0.478484 -0.736279 0.478483
vn 0.478484 -0.736279 0.478484
vn 0.478484 -0.736279 0.478483
vn -0.801031 0.460488 0.382493
vn -0.801031 0.460488 0.382493
vn -0.801031 0.460488 0.382493
vn -0.801031 0.460488 0.382493
vn -0.635770 0.437713 -0.635770
vn -0.635770 0.437713 -0.635770
vn -0.635770 0.437713 -0.635770
vn -0.635770 0.437713 -0.635770
vn 0.382493 0.460488 -0.801031
vn 0.382493 0.460488 -0.801031
vn 0.382493 0.460488 -0.801031
vn 0.382493 0.460488 -0.801031
vn 0.319450 0.550607 -0.771222
vn 0.319450 0.550607 -0.771222
vn 0.319450 0.550607 -0.771222
vn 0.319450 0.550607 -0.771222
vn -0.319450 0.550607 -0.771222
vn -0.319450 0.550607 -0.771222
vn -0.319450 0.550607 -0.771222
vn -0.319450 0.550607 -0.771222
vn -0.771222 0.550607 -0.319450
vn -0.771222 0.550607 -0.319450
vn -0.771222 0.550607 -0.319450
vn -0.771222 0.550607 -0.319450
vn -0.771222 0.550607 0.319450
vn -0.771222 0.550607 0.319450
vn -0.771222 0.550607 0.319450
vn -0.771222 0.550607 0.319450
vn -0.319450 0.550607 0.771222
vn -0.319450 0.550607 0.771222
vn -0.319450 0.550607 0.771222
vn -0.319450 0.550607 0.771222
vn 0.319450 0.550607 0.771222
vn 0.319450 0.550607 0.771222
vn 0.319450 0.550607 0.771222
vn 0.319450 0.550607 0.771222
vn 0.771222 0.550607 0.319450
vn 0.771222 0.550607 0.319450
vn 0.771222 0.550607 0.319450
vn 0.771222 0.550607 0.319450
vn 0.771222 0.550607 -0.319450
vn 0.771222 0.550607 -0.319450
vn 0.771222 0.550607 -0.319450
vn 0.771222 0.550607 -0.319450
vn 0.382683 0.000000 -0.923880
vn 0.382683 0.000000 -0.923880
vn 0.382683 0.000000 -0.923880
vn 0.382683 0.000000 -0.923880
vn -0.382683 0.000000 -0.923880
vn -0.382683 0.000000 -0.923880
vn -0.382683 0.000000 -0.923880
vn -0.382683 0.000000 -0.923880
vn -0.923880 0.000000 -0.382683
vn -0.923880 0.000000 -0.382683
vn -0.923880 0.000000 -0.382683
vn -0.923880 0.000000 -0.382683
vn -0.923880 0.000000 0.382683
vn -0.923880 0.000000 0.382683
vn -0.923880 0.000000 0.382683
vn -0.923880 0.000000 0.382683
vn -0.382683 0.000000 0.923880
vn -0.382683 0.000000 0.923880
vn -0.382683 0.000000 0.923880
vn -0.382683 0.000000 0.923880
vn 0.382683 0.000000 0.923880
vn 0.382683 0.000000 0.923880
vn 0.382683 0.000000 0.923880
vn 0.382683 0.000000 0.923880
vn 0.923880 0.000000 0.382683
vn 0.923880 0.000000 0.382683
vn 0.923880 0.000000 0.382683
vn 0.923880 0.000000 0.382683
vn 0.923880 0.000000 -0.382683
vn 0.923880 0.000000 -0.382683
vn 0.923880 0.000000 -0.382683
vn 0.923880 0.000000 -0.382683
vn 0.330671 -0.503342 -0.798313
vn 0.330671 -0.503342 -0.798313
vn 0.330671 -0.503342 -0.798313
vn 0.330671 -0.503342 -0.798313
vn -0.330671 -0.503343 -0.798312
vn -0.330671 -0.503343 -0.798312
vn -0.330671 -0.503343 -0.798312
vn -0.330671 -0.503343 -0.798312
vn -0.798312 -0.503343 -0.330671
vn -0.798312 -0.503343 -0.330671
vn -0.798312 -0.503343 -0.330671
vn -0.798312 -0.503343 -0.330671
vn -0.798312 -0.503343 0.330671
vn -0.798312 -0.503343 0.330671
vn -0.798313 -0.503343 0.330671
vn -0.798312 -0.503343 0.330671
vn -0.330671 -0.503343 0.798312
vn -0.330671 -0.503343 0.798312
vn -0.330671 -0.503343 0.798312
vn -0.330671 -0.503343 0.798312
vn 0.330671 -0.503342 0.798313
vn 0.330671 -0.503342 0.798313
vn 0.330671 -0.503342 0.798313
vn 0.330671 -0.503342 0.798313
vn 0.798312 -0.503343 0.330671
vn 0.798312 -0.503343 0.330671
vn 0.798312 -0.503343 0.330671
vn 0.798312 -0.503343 0.330671
vn 0.798312 -0.503343 -0.330671
vn 0.798312 -0.503343 -0.330671
vn 0.798313 -0.503343 -0.330671
vn 0.798312 -0.503343 -0.330671
vn 0.356881 0.360971 -0.861589
vn 0.356881 0.360971 -0.861589
vn 0.356881 0.360971 -0.861589
vn 0.356881 0.360971 -0.861589
vn -0.356881 0.360971 -0.861589
vn -0.356881 0.360971 -0.861589
vn -0.356881 0.360971 -0.861589
vn -0.356881 0.360971 -0.861589
vn -0.861589 0.360971 -0.356881
vn -0.861589 0.360971 -0.356881
vn -0.861589 0.360971 -0.356881
vn -0.861589 0.360971 -0.356881
vn -0.861589 0.360971 0.356881
vn -0.861589 0.360971 0.356881
vn -0.861589 0.360971 0.356881
vn -0.861589 0.360971 0.356881
vn -0.356881 0.360971 0.861589
vn -0.356881 0.360971 0.861589
vn -0.356881 0.360971 0.861589
vn -0.356881 0.360971 0.861589
vn 0.356881 0.360971 0.861589
vn 0.356881 0.360971 0.861589
vn 0.356881 0.360971 0.861589
vn 0.356881 0.360971 0.861589
vn 0.861589 0.360971 0.356881
vn 0.861589 0.360971 0.356881
vn 0.861589 0.360971 0.356881
vn 0.861589 0.360971 0.356881
vn 0.861589 0.360971 -0.356881
vn 0.861589 0.360971 -0.356881
vn 0.861589 0.360971 -0.356881
vn 0.861589 0.360971 -0.356881
vn 0.382682 0.000000 -0.923880
vn 0.382682 0.000000 -0.923880
vn 0.382682 0.000000 -0.923880
vn 0.382682 0.000000 -0.923880
vn -0.382682 0.000000 -0.923880
vn -0.382682 0.000000 -0.923880
vn -0.382682 0.000000 -0.923880
vn -0.382682 0.000000 -0.923880
vn -0.923880 0.000000 -0.382682
vn -0.923880 0.000000 -0.382682
vn -0.923880 0.000000 -0.382682
vn -0.923880 0.000000 -0.382682
vn -0.923880 0.000000 0.382682
vn -0.923880 0.000000 0.382682
vn -0.923880 0.000000 0.382682
vn -0.923880 0.000000 0.382682
vn -0.382682 0.000000 0.923880
vn -0.382682 0.000000 0.923880
vn -0.382682 0.000000 0.923880
vn -0.382682 0.000000 0.923880
vn 0.382682 0.000000 0.923880
vn 0.382682 0.000000 0.923880
vn 0.382682 0.000000 0.923880
vn 0.382682 0.000000 0.923880
vn 0.923880 0.000000 0.382682
vn 0.923880 0.000000 0.382682
vn 0.923880 0.000000 0.382682
vn 0.923880 0.000000 0.382682
vn 0.923880 0.000000 -0.382682
vn 0.923880 0.000000 -0.382682
vn 0.923880 0.000000 -0.382682
vn 0.923880 0.000000 -0.382682
vn 0.303176 0.610174 -0.731964
vn 0.303176 0.610174 -0.731964
vn 0.303176 0.610174 -0.731964
vn 0.303176 0.610174 -0.731964
vn -0.303176 0.610174 -0.731964
vn -0.303176 0.610174 -0.731964
vn -0.303176 0.610174 -0.731964
vn -0.303176 0.610174 -0.731964
vn -0.731847 0.610316 -0.303173
vn -0.731847 0.610316 -0.303173
vn -0.731847 0.610316 -0.303173
vn -0.731847 0.610316 -0.303173
vn -0.731727 0.610517 0.303060
vn -0.731727 0.610517 0.303060
vn -0.731727 0.610517 0.303060
vn -0.731727 0.610517 0.303060
vn -0.303056 0.610659 0.731610
vn -0.303056 0.610659 0.731610
vn -0.303056 0.610659 0.731610
vn -0.303056 0.610659 0.731610
vn 0.303056 0.610659 0.731610
vn 0.303056 0.610659 0.731610
vn 0.303056 0.610659 0.731610
vn 0.303056 0.610659 0.731610
vn 0.731727 0.610517 0.303060
vn 0.731727 0.610517 0.303060
vn 0.731727 0.610517 0.303060
vn 0.731727 0.610517 0.303060
vn 0.731847 0.610317 -0.303173
vn 0.731847 0.610317 -0.303173
vn 0.731847 0.610317 -0.303173
vn 0.731847 0.610317 -0.303173
vn -0.307334 0.899901 -0.309392
vn -0.001860 0.999967 -0.007875
vn 0.001226 0.899747 -0.436411
vn 0.383629 0.000000 -0.923487
vn 0.383629 0.000000 -0.923487
vn 0.383629 0.000000 -0.923487
vn 0.383629 0.000000 -0.923487
vn -0.383629 0.000000 -0.923487
vn -0.383629 0.000000 -0.923487
vn -0.383629 0.000000 -0.923487
vn -0.383629 0.000000 -0.923487
vn -0.924817 0.000000 -0.380413
vn -0.924817 0.000000 -0.380414
vn -0.924817 0.000000 -0.380413
vn -0.924817 0.000000 -0.380414
vn -0.922936 0.000000 0.384953
vn -0.922936 0.000000 0.384953
vn -0.922936 0.000000 0.384953
vn -0.922936 0.000000 0.384953
vn -0.381746 0.000000 0.924267
vn -0.381746 0.000000 0.924267
vn -0.381746 0.000000 0.924267
vn -0.381746 0.000000 0.924267
vn 0.381746 0.000000 0.924267
vn 0.381746 0.000000 0.924267
vn 0.381746 0.000000 0.924267
vn 0.381746 0.000000 0.924267
vn 0.922936 0.000000 0.384953
vn 0.922936 0.000000 0.384953
vn 0.922936 0.000000 0.384953
vn 0.922936 0.000000 0.384953
vn 0.924817 0.000000 -0.380414
vn 0.924817 0.000000 -0.380414
vn 0.924817 0.000000 -0.380414
vn 0.924817 0.000000 -0.380413
vn 0.305223 0.902147 -0.304910
vn -0.430622 0.902532 -0.000878
vn 0.297265 0.908049 0.295096
vn 0.001163 0.908219 0.418494
vn 0.424179 0.905578 -0.000965
vn -0.299213 0.905982 0.299448
s 1
g pCylinder2
usemtl initialShadingGroup
f 81/105/1 82/106/2 83/9/3
f 82/106/2 84/107/4 83/9/3
f 84/107/4 85/108/5 83/9/3
f 85/108/5 86/109/6 83/9/3
f 86/109/6 87/110/7 83/9/3
f 87/110/7 88/111/8 83/9/3
f 88/111/8 89/112/9 83/9/3
f 89/112/9 81/105/1 83/9/3
s off
f 10/42/10 9/10/11 20/12/12 2/13/13 1/11/14
f 20/12/15 23/52/16 22/51/17 3/15/18 2/13/19
f 22/51/20 21/14/21 24/16/22 4/17/23 3/15/24
f 24/16/25 27/54/26 26/53/27 5/19/28 4/17/29
f 26/53/30 25/18/31 28/20/32 6/21/33 5/19/34
f 28/20/35 31/56/36 30/55/37 7/28/38 6/21/39
f 30/55/40 29/27/41 32/22/42 8/26/43 7/28/44
f 32/22/45 11/23/46 10/24/47 1/25/48 8/26/49
s 2
f 9/37/50 19/41/51 20/29/52
f 29/38/53 13/45/54 32/30/55
f 28/32/56 14/46/57 31/31/58
f 25/39/59 15/47/60 28/32/56
f 24/34/61 16/48/62 27/33/63
f 21/40/64 17/49/65 24/34/61
f 20/29/52 18/50/66 23/35/67
f 32/30/55 12/44/68 11/36/69
s off
f 33/57/70 34/58/71 35/59/72 36/60/73
s 2
f 13/45/54 12/44/68 32/30/55
s off
f 37/61/74 38/62/75 39/63/76 40/64/77
s 2
f 15/47/60 14/46/57 28/32/56
s off
f 41/65/78 42/66/79 43/67/80 44/68/81
s 2
f 17/49/65 16/48/62 24/34/61
s off
f 45/69/82 46/70/83 47/71/84 48/72/85
s 2
f 19/41/51 18/50/66 20/29/52
s off
f 9/10/86 10/42/87 11/43/88
s 2
f 12/44/68 13/45/54 14/46/57 15/47/60 16/48/62 17/49/65 18/50/66 19/41/51
s off
f 21/14/89 22/51/90 23/52/91
f 25/18/92 26/53/93 27/54/94
f 29/27/95 30/55/96 31/56/97
f 9/37/98 11/36/99 34/58/100 33/57/101
f 11/36/102 12/44/103 35/59/104 34/58/105
f 12/44/106 19/41/107 36/60/108 35/59/109
f 19/41/110 9/37/111 33/57/112 36/60/113
f 14/46/114 13/45/115 38/62/116 37/61/117
f 13/45/118 29/38/119 39/63/120 38/62/121
f 29/38/122 31/31/123 40/64/124 39/63/125
f 31/31/126 14/46/127 37/61/128 40/64/129
f 16/48/130 15/47/131 42/66/132 41/65/133
f 15/47/134 25/39/135 43/67/136 42/66/137
f 25/39/138 27/33/139 44/68/140 43/67/141
f 27/33/142 16/48/143 41/65/144 44/68/145
f 18/50/146 17/49/147 46/70/148 45/69/149
f 17/49/150 21/40/151 47/71/152 46/70/153
f 21/40/154 23/35/155 48/72/156 47/71/157
f 23/35/158 18/50/159 45/69/160 48/72/161
f 1/7/162 2/6/163 50/74/164 49/73/165
f 2/6/166 3/5/167 51/75/168 50/74/169
f 3/5/170 4/4/171 52/76/172 51/75/173
f 4/4/174 5/3/175 53/77/176 52/76/177
f 5/3/178 6/2/179 54/78/180 53/77/181
f 6/2/182 7/1/183 55/79/184 54/78/185
f 7/1/186 8/8/187 56/80/188 55/79/189
f 8/8/190 1/7/191 49/73/192 56/80/193
f 49/73/194 50/74/195 58/82/196 57/81/197
f 50/74/198 51/75/199 59/83/200 58/82/201
f 51/75/202 52/76/203 60/84/204 59/83/205
f 52/76/206 53/77/207 61/85/208 60/84/209
f 53/77/210 54/78/211 62/86/212 61/85/213
f 54/78/214 55/79/215 63/87/216 62/86/217
f 55/79/218 56/80/219 64/88/220 63/87/221
f 56/80/222 49/73/223 57/81/224 64/88/225
f 57/81/226 58/82/227 66/90/228 65/89/229
f 58/82/230 59/83/231 67/91/232 66/90/233
f 59/83/234 60/84/235 68/92/236 67/91/237
f 60/84/238 61/85/239 69/93/240 68/92/241
f 61/85/242 62/86/243 70/94/244 69/93/245
f 62/86/246 63/87/247 71/95/248 70/94/249
f 63/87/250 64/88/251 72/96/252 71/95/253
f 64/88/254 57/81/255 65/89/256 72/96/257
f 65/89/258 66/90/259 74/98/260 73/97/261
f 66/90/262 67/91/263 75/99/264 74/98/265
f 67/91/266 68/92/267 76/100/268 75/99/269
f 68/92/270 69/93/271 77/101/272 76/100/273
f 69/93/274 70/94/275 78/102/276 77/101/277
f 70/94/278 71/95/279 79/103/280 78/102/281
f 71/95/282 72/96/283 80/104/284 79/103/285
f 72/96/286 65/89/287 73/97/288 80/104/289
f 73/97/290 74/98/291 82/106/292 81/105/293
f 74/98/294 75/99/295 84/107/296 82/106/297
f 75/99/298 76/100/299 85/108/300 84/107/301
f 76/100/302 77/101/303 86/109/304 85/108/305
f 77/101/306 78/102/307 87/110/308 86/109/309
f 78/102/310 79/103/311 88/111/312 87/110/313
f 79/103/314 80/104/315 89/112/316 88/111/317
f 80/104/318 73/97/319 81/105/320 89/112/321
f 90/113/322 91/114/323 99/115/324 98/116/325
f 91/114/326 92/117/327 100/118/328 99/115/329
f 92/117/330 93/119/331 101/120/332 100/118/333
f 93/119/334 94/121/335 102/122/336 101/120/337
f 94/121/338 95/123/339 103/124/340 102/122/341
f 95/123/342 96/125/343 104/126/344 103/124/345
f 96/125/346 97/127/347 105/128/348 104/126/349
f 97/127/350 90/129/351 98/130/352 105/128/353
s 6
f 108/133/354 114/139/355 106/132/356
s off
f 98/116/357 99/115/358 106/132/359 107/131/360
f 99/115/361 100/118/362 108/133/363 106/132/364
f 100/118/365 101/120/366 109/134/367 108/133/368
f 101/120/369 102/122/370 110/135/371 109/134/372
f 102/122/373 103/124/374 111/136/375 110/135/376
f 103/124/377 104/126/378 112/137/379 111/136/380
f 104/126/381 105/128/382 113/138/383 112/137/384
f 105/128/385 98/116/386 107/131/387 113/138/388
s 6
f 107/131/389 106/132/356 114/139/355
f 109/134/390 114/139/355 108/133/354
f 112/137/391 114/139/355 111/136/392
f 113/138/393 114/139/355 112/137/391
f 107/131/389 114/139/355 113/138/393
f 110/135/394 114/139/355 109/134/390
f 111/136/392 114/139/355 110/135/394
