# This file uses centimeters as units for non-parametric coordinates.

mtllib Baroque_Pillar_01.mtl
g default
v 1.117457 -4.207408 -1.209180
v -0.278782 -4.207408 -1.209180
v -0.976902 -4.207408 -0.000000
v -0.278783 -4.207408 1.209180
v 1.117456 -4.207408 1.209180
v 1.815576 -4.207408 0.000000
v 0.919337 5.127982 -0.866025
v -0.080663 5.127982 -0.866026
v -0.580663 5.127982 -0.000000
v -0.080663 5.127982 0.866025
v 0.919337 5.127982 0.866025
v 1.419337 5.127982 0.000000
v 0.419337 5.127982 0.000000
v -0.580663 3.695368 -0.000000
v -0.080663 3.695368 -0.866026
v 0.919337 3.695368 -0.866025
v 1.419337 3.695368 0.000000
v 0.919337 3.695368 0.866025
v -0.080663 3.695368 0.866025
v -0.758762 3.973078 -0.000000
v -0.169712 3.973078 -1.020264
v -0.758762 4.926220 -0.000000
v -0.169712 4.926220 -1.020264
v 1.008387 3.973078 -1.020263
v 1.008387 4.926220 -1.020263
v 1.597436 3.973078 0.000000
v 1.597436 4.926220 0.000000
v 1.008386 3.973078 1.020264
v 1.008386 4.926220 1.020264
v -0.169713 3.973078 1.020264
v -0.169713 4.926220 1.020264
v 0.919337 -3.459104 -0.866025
v 1.419337 -3.459104 0.000000
v 0.919337 -3.459104 0.866025
v -0.080663 -3.459104 0.866025
v -0.580663 -3.459104 -0.000000
v -0.080663 -3.459104 -0.866026
vt 0.375000 0.312500
vt 0.416667 0.312500
vt 0.458333 0.312500
vt 0.500000 0.312500
vt 0.541667 0.312500
vt 0.583333 0.312500
vt 0.625000 0.312500
vt 0.375000 0.688440
vt 0.416667 0.688440
vt 0.458333 0.688440
vt 0.500000 0.688440
vt 0.541667 0.688440
vt 0.583333 0.688440
vt 0.625000 0.688440
vt 0.578125 0.708434
vt 0.421875 0.708434
vt 0.343750 0.843750
vt 0.421875 0.979066
vt 0.578125 0.979066
vt 0.656250 0.843750
vt 0.500000 0.837500
vt 0.458333 0.645129
vt 0.416667 0.645129
vt 0.625000 0.645129
vt 0.375000 0.645129
vt 0.583333 0.645129
vt 0.541667 0.645129
vt 0.500000 0.645129
vt 0.416667 0.645129
vt 0.458333 0.645129
vt 0.458333 0.688440
vt 0.416667 0.688440
vt 0.375000 0.645129
vt 0.375000 0.688440
vt 0.583333 0.645129
vt 0.625000 0.645129
vt 0.625000 0.688440
vt 0.583333 0.688440
vt 0.541667 0.645129
vt 0.541667 0.688440
vt 0.500000 0.645129
vt 0.500000 0.688440
vt 0.625000 0.360591
vt 0.375000 0.360591
vt 0.583333 0.360591
vt 0.541667 0.360591
vt 0.500000 0.360591
vt 0.458333 0.360591
vt 0.416667 0.360591
vn 0.000000 0.416837 -0.908981
vn 0.000000 0.416837 -0.908981
vn 0.000000 0.416837 -0.908981
vn 0.000000 0.416837 -0.908981
vn -0.787201 0.416836 -0.454491
vn -0.787201 0.416836 -0.454491
vn -0.787201 0.416836 -0.454491
vn -0.787201 0.416836 -0.454491
vn -0.787201 0.416836 0.454491
vn -0.787201 0.416836 0.454491
vn -0.787201 0.416836 0.454491
vn -0.787201 0.416836 0.454491
vn -0.000000 0.416837 0.908981
vn -0.000000 0.416837 0.908981
vn -0.000000 0.416837 0.908981
vn -0.000000 0.416837 0.908981
vn 0.787201 0.416836 0.454491
vn 0.787201 0.416836 0.454491
vn 0.787201 0.416836 0.454491
vn 0.787201 0.416836 0.454491
vn 0.787201 0.416836 -0.454491
vn 0.787201 0.416836 -0.454491
vn 0.787201 0.416836 -0.454491
vn 0.787201 0.416836 -0.454491
vn 0.000000 1.000000 0.000000
vn 0.000000 1.000000 0.000000
vn 0.000000 1.000000 0.000000
vn 0.000000 1.000000 0.000000
vn 0.000000 1.000000 0.000000
vn 0.000000 1.000000 0.000000
vn 0.000000 1.000000 0.000000
vn 0.000000 1.000000 0.000000
vn 0.000000 1.000000 0.000000
vn 0.000000 1.000000 0.000000
vn 0.000000 1.000000 0.000000
vn 0.000000 1.000000 0.000000
vn 0.000000 1.000000 0.000000
vn 0.000000 1.000000 0.000000
vn 0.000000 1.000000 0.000000
vn 0.000000 1.000000 0.000000
vn 0.000000 1.000000 0.000000
vn 0.000000 1.000000 0.000000
vn -0.866025 0.000000 -0.500000
vn -0.866025 0.000000 -0.500000
vn -0.866025 0.000000 -0.500000
vn -0.866025 0.000000 -0.500000
vn 0.000000 0.000000 -1.000000
vn 0.000000 0.000000 -1.000000
vn 0.000000 0.000000 -1.000000
vn 0.000000 0.000000 -1.000000
vn 0.866026 0.000000 -0.500000
vn 0.866026 0.000000 -0.500000
vn 0.866026 0.000000 -0.500000
vn 0.866026 0.000000 -0.500000
vn 0.866025 0.000000 0.500000
vn 0.866025 0.000000 0.500000
vn 0.866025 0.000000 0.500000
vn 0.866025 0.000000 0.500000
vn 0.000000 0.000000 1.000000
vn 0.000000 0.000000 1.000000
vn 0.000000 0.000000 1.000000
vn 0.000000 0.000000 1.000000
vn -0.866026 0.000000 0.500000
vn -0.866026 0.000000 0.500000
vn -0.866026 0.000000 0.500000
vn -0.866026 0.000000 0.500000
vn -0.757094 -0.485534 -0.437109
vn -0.757094 -0.485534 -0.437109
vn -0.757094 -0.485534 -0.437109
vn -0.757094 -0.485534 -0.437109
vn -0.688017 0.607325 -0.397226
vn -0.688017 0.607325 -0.397227
vn -0.688017 0.607325 -0.397226
vn -0.688017 0.607325 -0.397227
vn 0.000000 -0.485535 -0.874217
vn 0.000000 -0.485535 -0.874218
vn 0.000000 -0.485535 -0.874218
vn 0.000000 -0.485535 -0.874217
vn 0.000000 0.607326 -0.794453
vn 0.000000 0.607326 -0.794453
vn 0.000000 0.607326 -0.794453
vn 0.000000 0.607326 -0.794453
vn 0.757095 -0.485534 -0.437109
vn 0.757095 -0.485534 -0.437109
vn 0.757095 -0.485534 -0.437109
vn 0.757095 -0.485534 -0.437109
vn 0.688017 0.607325 -0.397227
vn 0.688017 0.607325 -0.397227
vn 0.688017 0.607325 -0.397227
vn 0.688017 0.607325 -0.397227
vn 0.757095 -0.485535 0.437109
vn 0.757095 -0.485535 0.437109
vn 0.757095 -0.485535 0.437109
vn 0.757095 -0.485535 0.437109
vn 0.688017 0.607325 0.397226
vn 0.688017 0.607325 0.397226
vn 0.688017 0.607325 0.397226
vn 0.688017 0.607325 0.397226
vn 0.000000 -0.485535 0.874217
vn 0.000000 -0.485535 0.874217
vn 0.000000 -0.485535 0.874217
vn 0.000000 -0.485535 0.874217
vn -0.000000 0.607326 0.794453
vn -0.000000 0.607326 0.794453
vn -0.000000 0.607326 0.794453
vn -0.000000 0.607326 0.794453
vn -0.757095 -0.485534 0.437109
vn -0.757095 -0.485534 0.437109
vn -0.757095 -0.485534 0.437109
vn -0.757095 -0.485534 0.437109
vn -0.688017 0.607325 0.397226
vn -0.688017 0.607325 0.397226
vn -0.688017 0.607325 0.397226
vn -0.688017 0.607325 0.397226
vn 0.866026 0.000000 -0.500000
vn 0.866026 0.000000 -0.500000
vn 0.866026 0.000000 -0.500000
vn 0.866026 0.000000 -0.500000
vn 0.866025 0.000000 0.500000
vn 0.866025 0.000000 0.500000
vn 0.866025 0.000000 0.500000
vn 0.866025 0.000000 0.500000
vn -0.000000 -0.000000 1.000000
vn -0.000000 -0.000000 1.000000
vn -0.000000 -0.000000 1.000000
vn -0.000000 -0.000000 1.000000
vn -0.866026 -0.000000 0.500000
vn -0.866026 -0.000000 0.500000
vn -0.866026 -0.000000 0.500000
vn -0.866026 -0.000000 0.500000
vn -0.866025 0.000000 -0.500000
vn -0.866025 0.000000 -0.500000
vn -0.866025 0.000000 -0.500000
vn -0.866025 0.000000 -0.500000
vn 0.000000 0.000000 -1.000000
vn 0.000000 0.000000 -1.000000
vn 0.000000 0.000000 -1.000000
vn 0.000000 0.000000 -1.000000
s off
g pCylinder2
usemtl initialShadingGroup
f 1/1/1 2/2/2 37/49/3 32/44/4
f 2/2/5 3/3/6 36/48/7 37/49/8
f 3/3/9 4/4/10 35/47/11 36/48/12
f 4/4/13 5/5/14 34/46/15 35/47/16
f 5/5/17 6/6/18 33/45/19 34/46/20
f 6/6/21 1/7/22 32/43/23 33/45/24
f 7/19/25 8/18/26 13/21/27
f 8/18/28 9/17/29 13/21/30
f 9/17/31 10/16/32 13/21/33
f 10/16/34 11/15/35 13/21/36
f 11/15/37 12/20/38 13/21/39
f 12/20/40 7/19/41 13/21/42
f 21/29/43 20/30/44 22/31/45 23/32/46
f 24/33/47 21/29/48 23/32/49 25/34/50
f 26/35/51 24/36/52 25/37/53 27/38/54
f 28/39/55 26/35/56 27/38/57 29/40/58
f 30/41/59 28/39/60 29/40/61 31/42/62
f 20/30/63 30/41/64 31/42/65 22/31/66
f 15/23/67 14/22/68 20/30/69 21/29/70
f 9/10/71 8/9/72 23/32/73 22/31/74
f 16/25/75 15/23/76 21/29/77 24/33/78
f 8/9/79 7/8/80 25/34/81 23/32/82
f 17/26/83 16/24/84 24/36/85 26/35/86
f 7/14/87 12/13/88 27/38/89 25/37/90
f 18/27/91 17/26/92 26/35/93 28/39/94
f 12/13/95 11/12/96 29/40/97 27/38/98
f 19/28/99 18/27/100 28/39/101 30/41/102
f 11/12/103 10/11/104 31/42/105 29/40/106
f 14/22/107 19/28/108 30/41/109 20/30/110
f 10/11/111 9/10/112 22/31/113 31/42/114
f 33/45/115 32/43/116 16/24/117 17/26/118
f 34/46/119 33/45/120 17/26/121 18/27/122
f 35/47/123 34/46/124 18/27/125 19/28/126
f 36/48/127 35/47/128 19/28/129 14/22/130
f 37/49/131 36/48/132 14/22/133 15/23/134
f 32/44/135 37/49/136 15/23/137 16/25/138
