# This file uses centimeters as units for non-parametric coordinates.

mtllib Baroque_Wall_01.mtl
g default
v -1.274338 0.348882 0.130489
v 3.172302 0.348882 0.130489
v -1.274338 4.039957 0.130489
v 3.172302 4.039957 0.130489
v -1.274338 4.039957 -0.741058
v 3.172302 4.039957 -0.741058
v -1.274338 0.348882 -0.741058
v 3.172302 0.348882 -0.741058
v -1.274338 -0.031659 -1.087103
v 3.172302 -0.031659 -1.087103
v 3.172302 -0.031659 0.476534
v -1.274338 -0.031659 0.476534
v -1.274338 3.908442 0.130489
v -1.274338 3.908442 -0.741058
v 3.172302 3.908442 -0.741058
v 3.172302 3.908442 0.130489
v -1.274337 3.430572 0.130489
v -1.274337 3.430572 -0.741058
v 3.172302 3.430572 -0.741058
v 3.172302 3.430572 0.130489
v -0.892405 3.430572 0.055630
v -0.892405 3.430572 -0.666199
v -0.892405 3.908442 0.055630
v -0.892405 3.908442 -0.666199
v 2.790370 3.908442 -0.666199
v 2.790370 3.430572 -0.666199
v 2.790370 3.430572 0.055630
v 2.790370 3.908442 0.055630
v 3.172302 0.978504 -0.741058
v -1.274338 0.978504 -0.741058
v -1.274338 0.978504 0.130489
v 3.172302 0.978504 0.130489
v 3.008222 0.978504 -0.708898
v -1.110258 0.978504 -0.708898
v 3.008222 0.348882 -0.708898
v -1.110258 0.348882 -0.708898
v -1.110258 0.348882 0.098330
v -1.110258 0.978504 0.098330
v 3.008222 0.348882 0.098330
v 3.008222 0.978504 0.098330
vt 0.375000 0.000000
vt 0.625000 0.000000
vt 0.375000 0.250000
vt 0.625000 0.250000
vt 0.375000 0.500000
vt 0.625000 0.500000
vt 0.375000 0.750000
vt 0.625000 0.750000
vt 0.375000 1.000000
vt 0.625000 1.000000
vt 0.875000 0.000000
vt 0.875000 0.250000
vt 0.125000 0.000000
vt 0.125000 0.250000
vt 0.375000 0.750000
vt 0.625000 0.750000
vt 0.625000 1.000000
vt 0.375000 1.000000
vt 0.375000 0.236507
vt 0.125000 0.236507
vt 0.375000 0.513493
vt 0.625000 0.513493
vt 0.875000 0.236507
vt 0.625000 0.236507
vt 0.375000 0.218515
vt 0.125000 0.218515
vt 0.375000 0.531485
vt 0.625000 0.531485
vt 0.875000 0.218515
vt 0.625000 0.218515
vt 0.125000 0.218515
vt 0.375000 0.218515
vt 0.375000 0.236507
vt 0.125000 0.236507
vt 0.375000 0.513493
vt 0.625000 0.513493
vt 0.625000 0.531485
vt 0.375000 0.531485
vt 0.625000 0.218515
vt 0.875000 0.218515
vt 0.875000 0.236507
vt 0.625000 0.236507
vt 0.625000 0.733889
vt 0.875000 0.016111
vt 0.125000 0.016111
vt 0.375000 0.733889
vt 0.375000 0.016111
vt 0.625000 0.016111
vt 0.375000 0.733889
vt 0.625000 0.733889
vt 0.625000 0.750000
vt 0.375000 0.750000
vt 0.125000 0.000000
vt 0.375000 0.000000
vt 0.375000 0.016111
vt 0.125000 0.016111
vt 0.625000 0.000000
vt 0.625000 0.016111
vt 0.875000 0.000000
vt 0.875000 0.016111
vn 0.000000 0.000000 1.000000
vn 0.000000 0.000000 1.000000
vn 0.000000 0.000000 1.000000
vn 0.000000 0.000000 1.000000
vn 0.000000 1.000000 0.000000
vn 0.000000 1.000000 0.000000
vn 0.000000 1.000000 0.000000
vn 0.000000 1.000000 0.000000
vn 0.000000 0.000000 -1.000000
vn 0.000000 0.000000 -1.000000
vn 0.000000 0.000000 -1.000000
vn 0.000000 0.000000 -1.000000
vn 0.000000 -1.000000 0.000000
vn 0.000000 -1.000000 0.000000
vn 0.000000 -1.000000 0.000000
vn 0.000000 -1.000000 0.000000
vn 1.000000 0.000000 0.000000
vn 1.000000 0.000000 0.000000
vn 1.000000 0.000000 0.000000
vn 1.000000 0.000000 0.000000
vn -1.000000 0.000000 0.000000
vn -1.000000 0.000000 0.000000
vn -1.000000 0.000000 0.000000
vn -1.000000 0.000000 0.000000
vn 0.000000 0.672777 -0.739845
vn 0.000000 0.672777 -0.739845
vn 0.000000 0.672777 -0.739845
vn 0.000000 0.672777 -0.739845
vn 1.000000 0.000000 0.000000
vn 1.000000 0.000000 0.000000
vn 1.000000 0.000000 0.000000
vn 1.000000 0.000000 0.000000
vn 0.000000 0.672777 0.739845
vn 0.000000 0.672777 0.739845
vn 0.000000 0.672777 0.739845
vn 0.000000 0.672777 0.739845
vn -1.000000 0.000000 0.000000
vn -1.000000 0.000000 0.000000
vn -1.000000 0.000000 0.000000
vn -1.000000 0.000000 0.000000
vn -1.000000 0.000000 0.000000
vn -1.000000 0.000000 0.000000
vn -1.000000 0.000000 0.000000
vn -1.000000 0.000000 0.000000
vn 0.000000 0.000000 -1.000000
vn 0.000000 0.000000 -1.000000
vn 0.000000 0.000000 -1.000000
vn 0.000000 0.000000 -1.000000
vn 1.000000 0.000000 0.000000
vn 1.000000 0.000000 0.000000
vn 1.000000 0.000000 0.000000
vn 1.000000 0.000000 0.000000
vn 0.000000 0.000000 1.000000
vn 0.000000 0.000000 1.000000
vn 0.000000 0.000000 1.000000
vn 0.000000 0.000000 1.000000
vn -1.000000 -0.000000 0.000000
vn -1.000000 -0.000000 0.000000
vn -1.000000 -0.000000 0.000000
vn -1.000000 -0.000000 0.000000
vn 0.000000 0.000000 -1.000000
vn 0.000000 0.000000 -1.000000
vn 0.000000 0.000000 -1.000000
vn 0.000000 0.000000 -1.000000
vn 1.000000 0.000000 0.000000
vn 1.000000 0.000000 0.000000
vn 1.000000 0.000000 0.000000
vn 1.000000 0.000000 0.000000
vn 0.000000 0.000000 1.000000
vn 0.000000 0.000000 1.000000
vn 0.000000 0.000000 1.000000
vn 0.000000 0.000000 1.000000
vn 0.000000 1.000000 0.000000
vn 0.000000 1.000000 0.000000
vn 0.000000 1.000000 0.000000
vn 0.000000 1.000000 0.000000
vn 0.000000 -1.000000 0.000000
vn 0.000000 -1.000000 0.000000
vn 0.000000 -1.000000 0.000000
vn 0.000000 -1.000000 0.000000
vn 0.000000 -1.000000 -0.000004
vn 0.000000 -1.000000 -0.000004
vn 0.000000 -1.000000 -0.000004
vn 0.000000 -1.000000 -0.000004
vn 0.000000 1.000000 0.000000
vn 0.000000 1.000000 0.000000
vn 0.000000 1.000000 0.000000
vn 0.000000 1.000000 0.000000
vn 0.000000 1.000000 0.000000
vn 0.000000 1.000000 0.000000
vn 0.000000 1.000000 0.000000
vn 0.000000 1.000000 0.000000
vn 0.000000 -1.000000 0.000000
vn 0.000000 -1.000000 0.000000
vn 0.000000 -1.000000 0.000000
vn 0.000000 -1.000000 0.000000
vn 0.000000 1.000000 -0.000001
vn 0.000000 1.000000 -0.000001
vn 0.000000 1.000000 -0.000001
vn 0.000000 1.000000 -0.000001
vn 0.000000 -1.000000 0.000002
vn 0.000000 -1.000000 0.000002
vn 0.000000 -1.000000 0.000002
vn 0.000000 -1.000000 0.000002
vn 0.000000 0.000000 -1.000000
vn 0.000000 0.000000 -1.000000
vn 0.000000 0.000000 -1.000000
vn 0.000000 0.000000 -1.000000
vn -1.000000 0.000000 0.000000
vn -1.000000 0.000000 0.000000
vn -1.000000 0.000000 0.000000
vn -1.000000 0.000000 0.000000
vn 0.000000 0.000000 1.000000
vn 0.000000 0.000000 1.000000
vn 0.000000 0.000000 1.000000
vn 0.000000 0.000000 1.000000
vn 1.000000 0.000000 0.000000
vn 1.000000 0.000000 0.000000
vn 1.000000 0.000000 0.000000
vn 1.000000 0.000000 0.000000
vn 0.000000 -1.000000 0.000001
vn 0.000000 -1.000000 0.000001
vn 0.000000 -1.000000 0.000001
vn 0.000000 -1.000000 0.000001
vn 0.000000 1.000000 0.000004
vn 0.000000 1.000000 0.000004
vn 0.000000 1.000000 0.000004
vn 0.000000 1.000000 0.000004
vn 0.000001 1.000000 0.000000
vn 0.000001 1.000000 0.000000
vn 0.000001 1.000000 0.000000
vn 0.000001 1.000000 0.000000
vn 0.000000 -1.000000 0.000000
vn 0.000000 -1.000000 0.000000
vn 0.000000 -1.000000 0.000000
vn 0.000000 -1.000000 0.000000
vn 0.000000 1.000000 -0.000004
vn 0.000000 1.000000 -0.000004
vn 0.000000 1.000000 -0.000004
vn 0.000000 1.000000 -0.000004
vn 0.000000 -1.000000 -0.000001
vn 0.000000 -1.000000 -0.000001
vn 0.000000 -1.000000 -0.000001
vn 0.000000 -1.000000 -0.000001
vn -0.000001 1.000000 0.000000
vn -0.000001 1.000000 0.000000
vn -0.000001 1.000000 0.000000
vn -0.000001 1.000000 0.000000
vn 0.000000 -1.000000 0.000000
vn 0.000000 -1.000000 0.000000
vn 0.000000 -1.000000 0.000000
vn 0.000000 -1.000000 0.000000
s off
g pCube1
usemtl initialShadingGroup
f 31/47/1 32/48/2 20/30/3 17/25/4
f 3/3/5 4/4/6 6/6/7 5/5/8
f 18/27/9 19/28/10 29/43/11 30/46/12
f 9/15/13 10/16/14 11/17/15 12/18/16
f 32/48/17 29/44/18 19/29/19 20/30/20
f 30/45/21 31/47/22 17/25/23 18/26/24
f 7/7/25 8/8/26 10/16/27 9/15/28
f 8/8/29 2/10/30 11/17/31 10/16/32
f 2/10/33 1/9/34 12/18/35 11/17/36
f 1/9/37 7/7/38 9/15/39 12/18/40
f 14/20/41 13/19/42 3/3/43 5/14/44
f 5/5/45 6/6/46 15/22/47 14/21/48
f 16/24/49 15/23/50 6/12/51 4/4/52
f 13/19/53 16/24/54 4/4/55 3/3/56
f 22/31/57 21/32/58 23/33/59 24/34/60
f 24/35/61 25/36/62 26/37/63 22/38/64
f 27/39/65 26/40/66 25/41/67 28/42/68
f 21/32/69 27/39/70 28/42/71 23/33/72
f 18/26/73 17/25/74 21/32/75 22/31/76
f 13/19/77 14/20/78 24/34/79 23/33/80
f 14/21/81 15/22/82 25/36/83 24/35/84
f 19/28/85 18/27/86 22/38/87 26/37/88
f 20/30/89 19/29/90 26/40/91 27/39/92
f 15/23/93 16/24/94 28/42/95 25/41/96
f 17/25/97 20/30/98 27/39/99 21/32/100
f 16/24/101 13/19/102 23/33/103 28/42/104
f 34/49/105 33/50/106 35/51/107 36/52/108
f 36/53/109 37/54/110 38/55/111 34/56/112
f 37/54/113 39/57/114 40/58/115 38/55/116
f 39/57/117 35/59/118 33/60/119 40/58/120
f 30/46/121 29/43/122 33/50/123 34/49/124
f 8/8/125 7/7/126 36/52/127 35/51/128
f 7/13/129 1/1/130 37/54/131 36/53/132
f 31/47/133 30/45/134 34/56/135 38/55/136
f 1/1/137 2/2/138 39/57/139 37/54/140
f 32/48/141 31/47/142 38/55/143 40/58/144
f 2/2/145 8/11/146 35/59/147 39/57/148
f 29/44/149 32/48/150 40/58/151 33/60/152
