# This file uses centimeters as units for non-parametric coordinates.

mtllib Baroque_plaform with pot.mtl
g default
v -0.328017 -1.607605 0.328017
v 0.328017 -1.607605 0.328017
v -0.328017 0.563370 0.328017
v 0.328017 0.563370 0.328017
v -0.328017 0.563370 -0.328017
v 0.328017 0.563370 -0.328017
v -0.328017 -1.607605 -0.328017
v 0.328017 -1.607605 -0.328017
v 0.328017 0.000000 0.328017
v -0.328017 0.000000 0.328017
v -0.328017 0.000000 -0.328017
v 0.328017 0.000000 -0.328017
v 0.328017 0.281685 0.328017
v -0.328017 0.281685 0.328017
v -0.328017 0.281685 -0.328017
v 0.328017 0.281685 -0.328017
v 0.469141 0.000000 0.469141
v -0.469141 0.000000 0.469141
v 0.469141 0.281685 0.469141
v -0.469141 0.281685 0.469141
v -0.469141 0.000000 -0.469141
v -0.469141 0.281685 -0.469141
v 0.469141 0.281685 -0.469141
v 0.469141 0.000000 -0.469141
v 0.083462 0.563370 -0.083462
v 0.000000 0.563370 -0.118033
v -0.083462 0.563370 -0.083462
v -0.118033 0.563370 0.000000
v -0.083462 0.563370 0.083462
v 0.000000 0.563370 0.118033
v 0.083462 0.563370 0.083462
v 0.118033 0.563370 0.000000
v 0.243433 0.679233 -0.243433
v 0.000000 0.679233 -0.344266
v -0.243433 0.679233 -0.243433
v -0.344266 0.679233 0.000000
v -0.243433 0.679233 0.243433
v 0.000000 0.679233 0.344266
v 0.243433 0.679233 0.243433
v 0.344266 0.679233 0.000000
v 0.312625 1.107541 -0.312625
v -0.000000 1.107541 -0.442119
v -0.312625 1.107541 -0.312625
v -0.442119 1.107541 -0.000000
v -0.312625 1.107541 0.312625
v -0.000000 1.107541 0.442119
v 0.312625 1.107541 0.312625
v 0.442119 1.107541 -0.000000
v -0.293606 0.899810 0.000000
v -0.207611 0.899810 -0.207611
v 0.000000 0.899810 -0.293606
v 0.207611 0.899810 -0.207611
v 0.293606 0.899810 0.000000
v 0.207611 0.899810 0.207611
v 0.000000 0.899810 0.293606
v -0.207611 0.899810 0.207611
vt 0.375000 0.000000
vt 0.625000 0.000000
vt 0.375000 0.250000
vt 0.625000 0.250000
vt 0.375000 0.500000
vt 0.625000 0.500000
vt 0.375000 0.750000
vt 0.625000 0.750000
vt 0.875000 0.000000
vt 0.875000 0.250000
vt 0.125000 0.000000
vt 0.125000 0.250000
vt 0.625000 0.125000
vt 0.375000 0.125000
vt 0.125000 0.125000
vt 0.375000 0.625000
vt 0.625000 0.625000
vt 0.875000 0.125000
vt 0.625000 0.187500
vt 0.375000 0.187500
vt 0.125000 0.187500
vt 0.375000 0.562500
vt 0.625000 0.562500
vt 0.875000 0.187500
vt 0.375000 0.125000
vt 0.625000 0.125000
vt 0.625000 0.187500
vt 0.375000 0.187500
vt 0.125000 0.125000
vt 0.125000 0.187500
vt 0.375000 0.562500
vt 0.625000 0.562500
vt 0.625000 0.625000
vt 0.375000 0.625000
vt 0.875000 0.125000
vt 0.875000 0.187500
vt 0.375000 0.312500
vt 0.406250 0.312500
vt 0.406250 0.387688
vt 0.375000 0.387688
vt 0.437500 0.312500
vt 0.437500 0.387688
vt 0.468750 0.312500
vt 0.468750 0.387688
vt 0.500000 0.312500
vt 0.500000 0.387688
vt 0.531250 0.312500
vt 0.531250 0.387688
vt 0.562500 0.312500
vt 0.562500 0.387688
vt 0.593750 0.312500
vt 0.593750 0.387688
vt 0.625000 0.312500
vt 0.625000 0.387688
vt 0.406250 0.500470
vt 0.375000 0.500470
vt 0.437500 0.500470
vt 0.468750 0.500470
vt 0.500000 0.500470
vt 0.531250 0.500470
vt 0.562500 0.500470
vt 0.593750 0.500470
vt 0.625000 0.500470
vt 0.406250 0.688440
vt 0.375000 0.688440
vt 0.437500 0.688440
vt 0.468750 0.688440
vt 0.500000 0.688440
vt 0.531250 0.688440
vt 0.562500 0.688440
vt 0.593750 0.688440
vt 0.625000 0.688440
vn 0.000000 0.000000 1.000000
vn 0.000000 0.000000 1.000000
vn 0.000000 0.000000 1.000000
vn 0.000000 0.000000 1.000000
vn 0.000000 1.000000 0.000000
vn 0.000000 1.000000 0.000000
vn 0.000000 1.000000 0.000000
vn 0.000000 1.000000 0.000000
vn 0.000000 0.000000 -1.000000
vn 0.000000 0.000000 -1.000000
vn 0.000000 0.000000 -1.000000
vn 0.000000 0.000000 -1.000000
vn 1.000000 0.000000 0.000000
vn 1.000000 0.000000 0.000000
vn 1.000000 0.000000 0.000000
vn 1.000000 0.000000 0.000000
vn -1.000000 0.000000 0.000000
vn -1.000000 0.000000 0.000000
vn -1.000000 0.000000 0.000000
vn -1.000000 0.000000 0.000000
vn 0.000000 -0.000000 1.000000
vn 0.000000 -0.000000 1.000000
vn 0.000000 -0.000000 1.000000
vn 0.000000 -0.000000 1.000000
vn -1.000000 0.000000 0.000000
vn -1.000000 0.000000 0.000000
vn -1.000000 0.000000 0.000000
vn -1.000000 0.000000 0.000000
vn -0.000000 -0.000000 -1.000000
vn -0.000000 -0.000000 -1.000000
vn -0.000000 -0.000000 -1.000000
vn -0.000000 -0.000000 -1.000000
vn 1.000000 -0.000000 0.000000
vn 1.000000 -0.000000 0.000000
vn 1.000000 -0.000000 0.000000
vn 1.000000 -0.000000 0.000000
vn 0.000000 0.000000 1.000000
vn 0.000000 0.000000 1.000000
vn 0.000000 0.000000 1.000000
vn 0.000000 0.000000 1.000000
vn -1.000000 0.000000 0.000000
vn -1.000000 0.000000 0.000000
vn -1.000000 0.000000 0.000000
vn -1.000000 0.000000 0.000000
vn 0.000000 0.000000 -1.000000
vn 0.000000 0.000000 -1.000000
vn 0.000000 0.000000 -1.000000
vn 0.000000 0.000000 -1.000000
vn 1.000000 0.000000 0.000000
vn 1.000000 0.000000 0.000000
vn 1.000000 0.000000 0.000000
vn 1.000000 0.000000 0.000000
vn 0.000000 -1.000000 0.000000
vn 0.000000 -1.000000 0.000000
vn 0.000000 -1.000000 0.000000
vn 0.000000 -1.000000 0.000000
vn 0.000000 1.000000 0.000000
vn 0.000000 1.000000 0.000000
vn 0.000000 1.000000 0.000000
vn 0.000000 1.000000 0.000000
vn -0.000000 -1.000000 0.000000
vn -0.000000 -1.000000 0.000000
vn -0.000000 -1.000000 0.000000
vn -0.000000 -1.000000 0.000000
vn 0.000000 1.000000 0.000000
vn 0.000000 1.000000 0.000000
vn 0.000000 1.000000 0.000000
vn 0.000000 1.000000 0.000000
vn 0.000000 1.000000 -0.000000
vn 0.000000 1.000000 -0.000000
vn 0.000000 1.000000 -0.000000
vn 0.000000 1.000000 -0.000000
vn 0.000000 -1.000000 -0.000000
vn 0.000000 -1.000000 -0.000000
vn 0.000000 -1.000000 -0.000000
vn 0.000000 -1.000000 -0.000000
vn 0.000000 -1.000000 0.000000
vn 0.000000 -1.000000 0.000000
vn 0.000000 -1.000000 0.000000
vn 0.000000 -1.000000 0.000000
vn 0.000000 1.000000 0.000000
vn 0.000000 1.000000 0.000000
vn 0.000000 1.000000 0.000000
vn 0.000000 1.000000 0.000000
vn 0.185536 -0.874609 -0.447924
vn 0.185536 -0.874609 -0.447924
vn 0.185536 -0.874609 -0.447924
vn 0.185536 -0.874609 -0.447924
vn -0.185536 -0.874609 -0.447924
vn -0.185536 -0.874609 -0.447924
vn -0.185536 -0.874609 -0.447924
vn -0.185536 -0.874609 -0.447924
vn -0.447924 -0.874609 -0.185536
vn -0.447924 -0.874609 -0.185536
vn -0.447924 -0.874609 -0.185536
vn -0.447924 -0.874609 -0.185536
vn -0.447924 -0.874609 0.185536
vn -0.447924 -0.874609 0.185536
vn -0.447924 -0.874609 0.185536
vn -0.447924 -0.874609 0.185536
vn -0.185536 -0.874609 0.447924
vn -0.185536 -0.874609 0.447924
vn -0.185536 -0.874609 0.447924
vn -0.185536 -0.874609 0.447924
vn 0.185536 -0.874609 0.447924
vn 0.185536 -0.874609 0.447924
vn 0.185536 -0.874609 0.447924
vn 0.185536 -0.874609 0.447924
vn 0.447924 -0.874609 0.185536
vn 0.447924 -0.874609 0.185536
vn 0.447924 -0.874609 0.185536
vn 0.447924 -0.874609 0.185536
vn 0.447924 -0.874609 -0.185536
vn 0.447924 -0.874609 -0.185536
vn 0.447924 -0.874609 -0.185536
vn 0.447924 -0.874609 -0.185536
vn 0.374349 0.207567 -0.903758
vn 0.374349 0.207567 -0.903758
vn 0.374349 0.207567 -0.903758
vn 0.374349 0.207567 -0.903758
vn -0.374349 0.207567 -0.903758
vn -0.374349 0.207567 -0.903758
vn -0.374349 0.207567 -0.903758
vn -0.374349 0.207567 -0.903758
vn -0.903758 0.207567 -0.374349
vn -0.903758 0.207567 -0.374349
vn -0.903758 0.207567 -0.374349
vn -0.903758 0.207567 -0.374349
vn -0.903758 0.207567 0.374349
vn -0.903758 0.207567 0.374349
vn -0.903758 0.207567 0.374349
vn -0.903758 0.207567 0.374349
vn -0.374349 0.207567 0.903758
vn -0.374349 0.207567 0.903758
vn -0.374349 0.207567 0.903758
vn -0.374349 0.207567 0.903758
vn 0.374349 0.207567 0.903758
vn 0.374349 0.207567 0.903758
vn 0.374349 0.207567 0.903758
vn 0.374349 0.207567 0.903758
vn 0.903758 0.207567 0.374349
vn 0.903758 0.207567 0.374349
vn 0.903758 0.207567 0.374349
vn 0.903758 0.207567 0.374349
vn 0.903758 0.207567 -0.374349
vn 0.903758 0.207567 -0.374349
vn 0.903758 0.207567 -0.374349
vn 0.903758 0.207567 -0.374349
vn 0.319317 -0.551137 -0.770899
vn 0.319317 -0.551137 -0.770899
vn 0.319317 -0.551137 -0.770899
vn 0.319317 -0.551137 -0.770899
vn -0.319317 -0.551137 -0.770899
vn -0.319317 -0.551137 -0.770899
vn -0.319317 -0.551137 -0.770899
vn -0.319317 -0.551137 -0.770899
vn -0.770899 -0.551137 -0.319317
vn -0.770899 -0.551137 -0.319317
vn -0.770899 -0.551137 -0.319317
vn -0.770899 -0.551137 -0.319317
vn -0.770899 -0.551137 0.319317
vn -0.770899 -0.551137 0.319317
vn -0.770899 -0.551137 0.319317
vn -0.770899 -0.551137 0.319317
vn -0.319317 -0.551137 0.770899
vn -0.319317 -0.551137 0.770899
vn -0.319317 -0.551137 0.770899
vn -0.319317 -0.551137 0.770899
vn 0.319317 -0.551137 0.770899
vn 0.319317 -0.551137 0.770899
vn 0.319317 -0.551137 0.770899
vn 0.319317 -0.551137 0.770899
vn 0.770899 -0.551137 0.319317
vn 0.770899 -0.551137 0.319317
vn 0.770899 -0.551137 0.319317
vn 0.770899 -0.551137 0.319317
vn 0.770899 -0.551137 -0.319317
vn 0.770899 -0.551137 -0.319317
vn 0.770899 -0.551137 -0.319317
vn 0.770899 -0.551137 -0.319317
s off
g pCube2
usemtl initialShadingGroup
f 1/1/1 2/2/2 9/13/3 10/14/4
f 3/3/5 4/4/6 6/6/7 5/5/8
f 11/16/9 12/17/10 8/8/11 7/7/12
f 2/2/13 8/9/14 12/18/15 9/13/16
f 7/11/17 1/1/18 10/14/19 11/15/20
f 18/25/21 17/26/22 19/27/23 20/28/24
f 21/29/25 18/25/26 20/28/27 22/30/28
f 22/31/29 23/32/30 24/33/31 21/34/32
f 17/26/33 24/35/34 23/36/35 19/27/36
f 14/20/37 13/19/38 4/4/39 3/3/40
f 15/21/41 14/20/42 3/3/43 5/12/44
f 5/5/45 6/6/46 16/23/47 15/22/48
f 13/19/49 16/24/50 6/10/51 4/4/52
f 10/14/53 9/13/54 17/26/55 18/25/56
f 13/19/57 14/20/58 20/28/59 19/27/60
f 11/15/61 10/14/62 18/25/63 21/29/64
f 14/20/65 15/21/66 22/30/67 20/28/68
f 15/22/69 16/23/70 23/32/71 22/31/72
f 12/17/73 11/16/74 21/34/75 24/33/76
f 9/13/77 12/18/78 24/35/79 17/26/80
f 16/24/81 13/19/82 19/27/83 23/36/84
f 25/37/85 26/38/86 34/39/87 33/40/88
f 26/38/89 27/41/90 35/42/91 34/39/92
f 27/41/93 28/43/94 36/44/95 35/42/96
f 28/43/97 29/45/98 37/46/99 36/44/100
f 29/45/101 30/47/102 38/48/103 37/46/104
f 30/47/105 31/49/106 39/50/107 38/48/108
f 31/49/109 32/51/110 40/52/111 39/50/112
f 32/51/113 25/53/114 33/54/115 40/52/116
f 34/39/117 51/55/118 52/56/119 33/40/120
f 35/42/121 50/57/122 51/55/123 34/39/124
f 36/44/125 49/58/126 50/57/127 35/42/128
f 37/46/129 56/59/130 49/58/131 36/44/132
f 38/48/133 55/60/134 56/59/135 37/46/136
f 39/50/137 54/61/138 55/60/139 38/48/140
f 40/52/141 53/62/142 54/61/143 39/50/144
f 33/54/145 52/63/146 53/62/147 40/52/148
f 42/64/149 41/65/150 52/56/151 51/55/152
f 43/66/153 42/64/154 51/55/155 50/57/156
f 44/67/157 43/66/158 50/57/159 49/58/160
f 45/68/161 44/67/162 49/58/163 56/59/164
f 46/69/165 45/68/166 56/59/167 55/60/168
f 47/70/169 46/69/170 55/60/171 54/61/172
f 48/71/173 47/70/174 54/61/175 53/62/176
f 41/72/177 48/71/178 53/62/179 52/63/180
