# This file uses centimeters as units for non-parametric coordinates.

mtllib Baroque_Pot_01.mtl
g default
v 0.744449 -0.217173 -0.595906
v 0.195258 -0.217173 -0.912981
v -0.429258 -0.217173 -0.802862
v -0.836883 -0.217173 -0.317075
v -0.836883 -0.217173 0.317075
v -0.429258 -0.217173 0.802862
v 0.195258 -0.217173 0.912981
v 0.744449 -0.217173 0.595906
v 0.961342 -0.217173 -0.000000
v 1.387902 0.289510 -1.157951
v 0.320728 0.289510 -1.774084
v -0.892816 0.289510 -1.560103
v -1.684901 0.289510 -0.616133
v -1.684901 0.289510 0.616133
v -0.892817 0.289510 1.560102
v 0.320728 0.289510 1.774083
v 1.387901 0.289510 1.157951
v 1.809361 0.289510 -0.000000
v 1.224926 0.804428 -1.015595
v 0.288949 0.804428 -1.555981
v -0.775405 0.804428 -1.368307
v -1.470113 0.804428 -0.540387
v -1.470113 0.804428 0.540386
v -0.775405 0.804428 1.368307
v 0.288949 0.804428 1.555981
v 1.224926 0.804428 1.015594
v 1.594572 0.804428 -0.000000
v 1.224926 1.685686 -1.015595
v 0.288949 1.685686 -1.555981
v -0.775405 1.685686 -1.368307
v -1.470113 1.685686 -0.540387
v -1.470113 1.685686 0.540386
v -0.775405 1.685686 1.368307
v 0.288949 1.685686 1.555981
v 1.224926 1.685686 1.015594
v 1.594572 1.685686 -0.000000
v 1.580923 2.511263 -1.326552
v 0.358366 2.511263 -2.032395
v -1.031874 2.511263 -1.787259
v -1.939289 2.511263 -0.705844
v -1.939289 2.511263 0.705843
v -1.031874 2.511263 1.787258
v 0.358366 2.511263 2.032395
v 1.580923 2.511263 1.326552
v 2.063748 2.511263 0.000000
v 0.463542 3.418038 -0.350539
v 0.140483 3.418038 -0.537056
v -0.226885 3.418038 -0.472282
v -0.466669 3.418038 -0.186518
v -0.466669 3.418038 0.186518
v -0.226885 3.418038 0.472281
v 0.140483 3.418038 0.537056
v 0.463542 3.418038 0.350539
v 0.591128 3.418038 -0.000000
v 0.463542 3.613964 -0.350539
v 0.140483 3.613964 -0.537056
v -0.226885 3.613964 -0.472282
v -0.466669 3.613964 -0.186518
v -0.466669 3.613964 0.186518
v -0.226885 3.613964 0.472281
v 0.140483 3.613964 0.537056
v 0.463542 3.613964 0.350539
v 0.591128 3.613964 -0.000000
v 0.226571 1.245057 -1.127880
v 0.905030 1.245057 -0.736171
v 1.172974 1.245057 -0.000000
v 0.905030 1.245057 0.736171
v 0.226571 1.245057 1.127879
v -0.544944 1.245057 0.991840
v -1.048515 1.245057 0.391708
v -1.048515 1.245057 -0.391709
v -0.544944 1.245057 -0.991841
vt 0.375000 0.312500
vt 0.402778 0.312500
vt 0.430556 0.312500
vt 0.458333 0.312500
vt 0.486111 0.312500
vt 0.513889 0.312500
vt 0.541667 0.312500
vt 0.569445 0.312500
vt 0.597222 0.312500
vt 0.625000 0.312500
vt 0.375000 0.406485
vt 0.402778 0.406485
vt 0.430556 0.406485
vt 0.458333 0.406485
vt 0.486111 0.406485
vt 0.513889 0.406485
vt 0.541667 0.406485
vt 0.569445 0.406485
vt 0.597222 0.406485
vt 0.625000 0.406485
vt 0.375000 0.500470
vt 0.402778 0.500470
vt 0.430556 0.500470
vt 0.458333 0.500470
vt 0.486111 0.500470
vt 0.513889 0.500470
vt 0.541667 0.500470
vt 0.569445 0.500470
vt 0.597222 0.500470
vt 0.625000 0.500470
vt 0.375000 0.594455
vt 0.402778 0.594455
vt 0.430556 0.594455
vt 0.458333 0.594455
vt 0.486111 0.594455
vt 0.513889 0.594455
vt 0.541667 0.594455
vt 0.569445 0.594455
vt 0.597222 0.594455
vt 0.625000 0.594455
vt 0.375000 0.688440
vt 0.402778 0.688440
vt 0.430556 0.688440
vt 0.458333 0.688440
vt 0.486111 0.688440
vt 0.513889 0.688440
vt 0.541667 0.688440
vt 0.569445 0.688440
vt 0.597222 0.688440
vt 0.625000 0.688440
vt 0.619694 0.743314
vt 0.527133 0.689874
vt 0.421875 0.708434
vt 0.353173 0.790309
vt 0.353173 0.897191
vt 0.421875 0.979066
vt 0.527133 0.997626
vt 0.619694 0.944186
vt 0.656250 0.843750
vt 0.619694 0.944186
vt 0.527133 0.997626
vt 0.421875 0.979066
vt 0.353173 0.897191
vt 0.353173 0.790309
vt 0.421875 0.708434
vt 0.527133 0.689874
vt 0.619694 0.743314
vt 0.656250 0.843750
vt 0.619694 0.944186
vt 0.527133 0.997626
vt 0.421875 0.979066
vt 0.353173 0.897191
vt 0.353173 0.790309
vt 0.421875 0.708434
vt 0.527133 0.689874
vt 0.619694 0.743314
vt 0.656250 0.843750
vt 0.402778 0.547462
vt 0.625000 0.547462
vt 0.375000 0.547462
vt 0.597222 0.547462
vt 0.569445 0.547462
vt 0.541667 0.547462
vt 0.513889 0.547462
vt 0.486111 0.547462
vt 0.458333 0.547462
vt 0.430556 0.547462
vn 0.265523 -0.847344 -0.459899
vn 0.265523 -0.847344 -0.459899
vn 0.265523 -0.847344 -0.459899
vn 0.265523 -0.847344 -0.459899
vn -0.090779 -0.852471 -0.514832
vn -0.090779 -0.852471 -0.514832
vn -0.090779 -0.852471 -0.514832
vn -0.090779 -0.852471 -0.514832
vn -0.395028 -0.856786 -0.331468
vn -0.395028 -0.856786 -0.331468
vn -0.395028 -0.856786 -0.331468
vn -0.395028 -0.856786 -0.331468
vn -0.512911 -0.858442 0.000000
vn -0.512911 -0.858442 0.000000
vn -0.512911 -0.858442 0.000000
vn -0.512911 -0.858442 0.000000
vn -0.395028 -0.856786 0.331468
vn -0.395028 -0.856786 0.331468
vn -0.395028 -0.856786 0.331468
vn -0.395028 -0.856786 0.331468
vn -0.090779 -0.852471 0.514832
vn -0.090779 -0.852471 0.514832
vn -0.090779 -0.852471 0.514832
vn -0.090779 -0.852471 0.514832
vn 0.265522 -0.847344 0.459899
vn 0.265522 -0.847344 0.459899
vn 0.265522 -0.847344 0.459899
vn 0.265522 -0.847344 0.459899
vn 0.504200 -0.843863 0.183514
vn 0.504200 -0.843863 0.183514
vn 0.504200 -0.843863 0.183514
vn 0.504200 -0.843863 0.183514
vn 0.504200 -0.843863 -0.183514
vn 0.504200 -0.843863 -0.183514
vn 0.504200 -0.843863 -0.183514
vn 0.504200 -0.843863 -0.183514
vn 0.464609 0.369531 -0.804727
vn 0.464609 0.369531 -0.804727
vn 0.464609 0.369531 -0.804727
vn 0.464609 0.369531 -0.804727
vn -0.160870 0.376509 -0.912339
vn -0.160870 0.376509 -0.912339
vn -0.160870 0.376509 -0.912339
vn -0.160870 0.376509 -0.912339
vn -0.707762 0.382592 -0.593883
vn -0.707762 0.382592 -0.593883
vn -0.707762 0.382592 -0.593883
vn -0.707762 0.382592 -0.593883
vn -0.922924 0.384981 -0.000000
vn -0.922924 0.384981 -0.000000
vn -0.922924 0.384981 -0.000000
vn -0.922924 0.384981 -0.000000
vn -0.707762 0.382592 0.593883
vn -0.707762 0.382592 0.593883
vn -0.707762 0.382592 0.593883
vn -0.707762 0.382592 0.593883
vn -0.160870 0.376508 0.912339
vn -0.160870 0.376508 0.912339
vn -0.160870 0.376508 0.912339
vn -0.160870 0.376508 0.912339
vn 0.464609 0.369531 0.804727
vn 0.464609 0.369531 0.804727
vn 0.464609 0.369531 0.804727
vn 0.464609 0.369531 0.804727
vn 0.874883 0.364941 0.318431
vn 0.874883 0.364941 0.318431
vn 0.874883 0.364941 0.318431
vn 0.874882 0.364941 0.318431
vn 0.874883 0.364942 -0.318431
vn 0.874883 0.364942 -0.318431
vn 0.874883 0.364942 -0.318431
vn 0.874883 0.364942 -0.318431
vn 0.369400 0.673924 -0.639820
vn 0.369400 0.673924 -0.639820
vn 0.500000 -0.000000 -0.866025
vn 0.500000 -0.000000 -0.866025
vn -0.127016 0.681885 -0.720347
vn -0.127016 0.681885 -0.720347
vn -0.173648 0.000000 -0.984808
vn -0.173648 0.000000 -0.984808
vn -0.555424 0.688692 -0.466056
vn -0.555424 0.688692 -0.466056
vn -0.766045 0.000000 -0.642788
vn -0.766044 -0.000000 -0.642788
vn -0.722538 0.691331 -0.000000
vn -0.722538 0.691331 -0.000000
vn -1.000000 -0.000000 -0.000000
vn -1.000000 -0.000000 -0.000000
vn -0.555423 0.688692 0.466056
vn -0.555423 0.688692 0.466056
vn -0.766044 0.000000 0.642788
vn -0.766044 0.000000 0.642788
vn -0.127017 0.681886 0.720346
vn -0.127017 0.681885 0.720346
vn -0.173648 -0.000000 0.984808
vn -0.173648 -0.000000 0.984808
vn 0.369400 0.673924 0.639820
vn 0.369400 0.673924 0.639820
vn 0.500000 -0.000000 0.866026
vn 0.500000 -0.000000 0.866025
vn 0.698778 0.668598 0.254335
vn 0.698778 0.668598 0.254335
vn 0.939693 -0.000000 0.342020
vn 0.939693 -0.000000 0.342020
vn 0.698778 0.668598 -0.254334
vn 0.698778 0.668598 -0.254334
vn 0.939693 -0.000000 -0.342020
vn 0.939693 0.000000 -0.342020
vn 0.439622 -0.476372 -0.761448
vn 0.439622 -0.476372 -0.761448
vn 0.439622 -0.476372 -0.761447
vn 0.439622 -0.476372 -0.761448
vn -0.151915 -0.484402 -0.861555
vn -0.151915 -0.484402 -0.861555
vn -0.151915 -0.484402 -0.861555
vn -0.151915 -0.484402 -0.861555
vn -0.667190 -0.491364 -0.559839
vn -0.667190 -0.491364 -0.559839
vn -0.667190 -0.491364 -0.559839
vn -0.667190 -0.491364 -0.559839
vn -0.869412 -0.494088 -0.000000
vn -0.869412 -0.494088 -0.000000
vn -0.869412 -0.494088 -0.000000
vn -0.869412 -0.494088 -0.000000
vn -0.667190 -0.491364 0.559839
vn -0.667190 -0.491364 0.559839
vn -0.667190 -0.491364 0.559839
vn -0.667190 -0.491364 0.559839
vn -0.151915 -0.484402 0.861555
vn -0.151915 -0.484402 0.861555
vn -0.151915 -0.484402 0.861555
vn -0.151915 -0.484402 0.861555
vn 0.439622 -0.476372 0.761448
vn 0.439622 -0.476372 0.761448
vn 0.439622 -0.476372 0.761448
vn 0.439622 -0.476372 0.761448
vn 0.828901 -0.471065 0.301695
vn 0.828901 -0.471065 0.301695
vn 0.828901 -0.471065 0.301695
vn 0.828901 -0.471065 0.301695
vn 0.828901 -0.471065 -0.301695
vn 0.828901 -0.471065 -0.301695
vn 0.828901 -0.471065 -0.301695
vn 0.828901 -0.471065 -0.301695
vn 0.271276 0.840022 -0.469864
vn 0.271276 0.840022 -0.469864
vn 0.271276 0.840022 -0.469864
vn 0.271276 0.840022 -0.469864
vn -0.092770 0.845331 -0.526128
vn -0.092770 0.845331 -0.526128
vn -0.092770 0.845330 -0.526128
vn -0.092770 0.845331 -0.526128
vn -0.403786 0.849801 -0.338816
vn -0.403785 0.849801 -0.338816
vn -0.403785 0.849801 -0.338816
vn -0.403785 0.849801 -0.338816
vn -0.524327 0.851517 0.000000
vn -0.524327 0.851517 0.000000
vn -0.524327 0.851517 0.000000
vn -0.524327 0.851517 0.000000
vn -0.403785 0.849801 0.338816
vn -0.403785 0.849801 0.338816
vn -0.403785 0.849801 0.338816
vn -0.403785 0.849801 0.338816
vn -0.092770 0.845331 0.526127
vn -0.092770 0.845331 0.526127
vn -0.092770 0.845331 0.526127
vn -0.092770 0.845331 0.526127
vn 0.271276 0.840022 0.469864
vn 0.271276 0.840022 0.469864
vn 0.271276 0.840022 0.469864
vn 0.271276 0.840022 0.469864
vn 0.515032 0.836422 0.187457
vn 0.515032 0.836422 0.187457
vn 0.515032 0.836422 0.187457
vn 0.515032 0.836422 0.187457
vn 0.515032 0.836422 -0.187457
vn 0.515032 0.836422 -0.187457
vn 0.515032 0.836422 -0.187456
vn 0.515032 0.836422 -0.187456
vn 0.499998 0.000000 -0.866026
vn 0.499998 0.000000 -0.866026
vn 0.499998 0.000000 -0.866026
vn 0.499998 0.000000 -0.866026
vn -0.173642 0.000000 -0.984809
vn -0.173642 0.000000 -0.984809
vn -0.173642 0.000000 -0.984809
vn -0.173642 0.000000 -0.984809
vn -0.766044 0.000000 -0.642788
vn -0.766044 0.000000 -0.642788
vn -0.766044 0.000000 -0.642788
vn -0.766044 0.000000 -0.642788
vn -1.000000 0.000000 0.000000
vn -1.000000 0.000000 0.000000
vn -1.000000 0.000000 0.000000
vn -1.000000 0.000000 0.000000
vn -0.766044 0.000000 0.642788
vn -0.766044 0.000000 0.642788
vn -0.766044 0.000000 0.642788
vn -0.766044 0.000000 0.642788
vn -0.173642 0.000000 0.984809
vn -0.173642 0.000000 0.984809
vn -0.173642 0.000000 0.984809
vn -0.173642 0.000000 0.984809
vn 0.499999 0.000000 0.866026
vn 0.499999 0.000000 0.866026
vn 0.499999 0.000000 0.866026
vn 0.499999 0.000000 0.866026
vn 0.939692 0.000000 0.342022
vn 0.939692 0.000000 0.342022
vn 0.939692 0.000000 0.342022
vn 0.939692 0.000000 0.342022
vn 0.939692 0.000000 -0.342021
vn 0.939692 0.000000 -0.342021
vn 0.939692 0.000000 -0.342021
vn 0.939692 0.000000 -0.342021
vn 0.369400 -0.673924 -0.639820
vn 0.369400 -0.673924 -0.639820
vn 0.698778 -0.668598 -0.254334
vn 0.698778 -0.668598 -0.254334
vn 0.698778 -0.668598 0.254334
vn 0.698778 -0.668598 0.254334
vn 0.369400 -0.673924 0.639820
vn 0.369400 -0.673924 0.639820
vn -0.127017 -0.681886 0.720346
vn -0.127017 -0.681886 0.720346
vn -0.555423 -0.688692 0.466056
vn -0.555423 -0.688692 0.466056
vn -0.722538 -0.691332 -0.000000
vn -0.722538 -0.691332 -0.000000
vn -0.555423 -0.688692 -0.466056
vn -0.555424 -0.688692 -0.466056
vn -0.127016 -0.681885 -0.720347
vn -0.127016 -0.681885 -0.720346
s off
g pCylinder1
usemtl initialShadingGroup
f 1/1/1 2/2/2 11/12/3 10/11/4
f 2/2/5 3/3/6 12/13/7 11/12/8
f 3/3/9 4/4/10 13/14/11 12/13/12
f 4/4/13 5/5/14 14/15/15 13/14/16
f 5/5/17 6/6/18 15/16/19 14/15/20
f 6/6/21 7/7/22 16/17/23 15/16/24
f 7/7/25 8/8/26 17/18/27 16/17/28
f 8/8/29 9/9/30 18/19/31 17/18/32
f 9/9/33 1/10/34 10/20/35 18/19/36
f 10/11/37 11/12/38 20/22/39 19/21/40
f 11/12/41 12/13/42 21/23/43 20/22/44
f 12/13/45 13/14/46 22/24/47 21/23/48
f 13/14/49 14/15/50 23/25/51 22/24/52
f 14/15/53 15/16/54 24/26/55 23/25/56
f 15/16/57 16/17/58 25/27/59 24/26/60
f 16/17/61 17/18/62 26/28/63 25/27/64
f 17/18/65 18/19/66 27/29/67 26/28/68
f 18/19/69 10/20/70 19/30/71 27/29/72
s 1
f 19/21/73 20/22/74 64/78/75 65/80/76
s 2
f 20/22/77 21/23/78 72/87/79 64/78/80
s 3
f 21/23/81 22/24/82 71/86/83 72/87/84
s 4
f 22/24/85 23/25/86 70/85/87 71/86/88
s 5
f 23/25/89 24/26/90 69/84/91 70/85/92
s 6
f 24/26/93 25/27/94 68/83/95 69/84/96
s 7
f 25/27/97 26/28/98 67/82/99 68/83/100
s 8
f 26/28/101 27/29/102 66/81/103 67/82/104
s 9
f 27/29/105 19/30/106 65/79/107 66/81/108
s off
f 28/31/109 29/32/110 38/42/111 37/41/112
f 29/32/113 30/33/114 39/43/115 38/42/116
f 30/33/117 31/34/118 40/44/119 39/43/120
f 31/34/121 32/35/122 41/45/123 40/44/124
f 32/35/125 33/36/126 42/46/127 41/45/128
f 33/36/129 34/37/130 43/47/131 42/46/132
f 34/37/133 35/38/134 44/48/135 43/47/136
f 35/38/137 36/39/138 45/49/139 44/48/140
f 36/39/141 28/40/142 37/50/143 45/49/144
f 37/58/145 38/57/146 47/61/147 46/60/148
f 38/57/149 39/56/150 48/62/151 47/61/152
f 39/56/153 40/55/154 49/63/155 48/62/156
f 40/55/157 41/54/158 50/64/159 49/63/160
f 41/54/161 42/53/162 51/65/163 50/64/164
f 42/53/165 43/52/166 52/66/167 51/65/168
f 43/52/169 44/51/170 53/67/171 52/66/172
f 44/51/173 45/59/174 54/68/175 53/67/176
f 45/59/177 37/58/178 46/60/179 54/68/180
f 46/60/181 47/61/182 56/70/183 55/69/184
f 47/61/185 48/62/186 57/71/187 56/70/188
f 48/62/189 49/63/190 58/72/191 57/71/192
f 49/63/193 50/64/194 59/73/195 58/72/196
f 50/64/197 51/65/198 60/74/199 59/73/200
f 51/65/201 52/66/202 61/75/203 60/74/204
f 52/66/205 53/67/206 62/76/207 61/75/208
f 53/67/209 54/68/210 63/77/211 62/76/212
f 54/68/213 46/60/214 55/69/215 63/77/216
s 1
f 65/80/76 64/78/75 29/32/217 28/31/218
s 9
f 66/81/108 65/79/107 28/40/219 36/39/220
s 8
f 67/82/104 66/81/103 36/39/221 35/38/222
s 7
f 68/83/100 67/82/99 35/38/223 34/37/224
s 6
f 69/84/96 68/83/95 34/37/225 33/36/226
s 5
f 70/85/92 69/84/91 33/36/227 32/35/228
s 4
f 71/86/88 70/85/87 32/35/229 31/34/230
s 3
f 72/87/84 71/86/83 31/34/231 30/33/232
s 2
f 64/78/80 72/87/79 30/33/233 29/32/234
